<svg xmlns="http://www.w3.org/2000/svg" viewBox="0 0 86.7 96.03"><defs><style>.cls-1{fill:#18285f;}.cls-2{fill:#1e4286;}.cls-3{fill:#fff;}.cls-4{fill:#5f8ac7;}</style></defs><g id="Слой_2" data-name="Слой 2"><g id="men"><path class="cls-1" d="M37.86,14.76c-1.2-.44-4.54-1.43-7.47-2.22-2.46-.66-5.35-2.1-5.1-5a2.6,2.6,0,0,1,.63-1.46,47.72,47.72,0,0,1,7.45.2,24.2,24.2,0,0,1,7,1.92c0,.06,0,.12-.07.19-.28.85-.39,1.63.3,2.07h0c-1.07,3.57-1.08,9-.19,9s2.73-1.61,3.85-2.94a2.27,2.27,0,0,0,2-.31,12.83,12.83,0,0,0,2.37-2.7,22,22,0,0,1,4.61,5.57,21.19,21.19,0,0,1,2.36,9.46c-.48.89-1.46,1-2.54.87a5.3,5.3,0,0,1-4.33-3.8c-.92-3.27-1.66-5.29-3.63-6.72,0,0-1,.68-5.1,3a.78.78,0,0,1-1.13-.53A37.3,37.3,0,0,1,37.86,14.76Z"/><path class="cls-1" d="M13.33,57.56c1.21,2.77,5.87,4.46,8.31,3.69,0,.06-.56,1.46-1.36,3.33-2.51.13-6.6-.39-8.32-3.41C12.54,59.55,13,58.44,13.33,57.56Z"/><path class="cls-1" d="M57.37,66.28c-.85-.84-1.76-1.73-2.72-2.65,2.28.14,6.44-2.46,6.53-5.53l0,0c1,.9,1.88,1.76,2.69,2.58C63.68,63.62,60.51,66.12,57.37,66.28Z"/><path class="cls-2" d="M43.7,59.51C51.43,69.37,59,79.05,63.49,84.7S69.32,91.26,75,91.55c4.54.22,6.47,0,9.29.08,1.68,0,2.46,1,2.38,2.09-.12,1.56-.72,2.4-3.12,2.3-3.61-.15-10-.74-12.85-1.67A7.08,7.08,0,0,1,67.19,92L42.45,60.48l-3.3-4.19c.42-.41.9-.93,1.31-.91Z"/><path class="cls-2" d="M22,31.78l1.38,1.76L24.51,35,34,47.19l3.84,4.89c-.25.59-.47,1.17-.67,1.72l-4.34-5.53L23.61,36.5l-1.42-1.8L20.86,33A1.05,1.05,0,0,1,22,31.78Z"/><path class="cls-3" d="M41.68,8.71a.19.19,0,0,0,0,.08.28.28,0,0,0,.07.21l.32.31a4.15,4.15,0,0,1-.51.58.49.49,0,0,1-.73-.13c-.2-.26-.1-.79.1-1.34a17.07,17.07,0,0,1,.95-1.95h0l.23.35a.62.62,0,0,1,.12.62Z"/><path class="cls-3" d="M40.59,10.44a1.05,1.05,0,0,0,1,.23,3.06,3.06,0,0,0,1-.87l.35.31a.23.23,0,0,0,.35-.07c0-.08.1-.19.17-.3s.15-.24.25-.37a.74.74,0,0,1,1-.16,9.91,9.91,0,0,0,5.5,2,9.16,9.16,0,0,1-.89,1.37l0,.06-.21.28L49,13h0l-.17.22-.19.26a12.83,12.83,0,0,1-2.37,2.7,2.27,2.27,0,0,1-2,.31c-1.12,1.33-2.9,2.9-3.85,2.94S39.52,14,40.59,10.44Z"/><path class="cls-4" d="M0,84.35c.25-.91.48-1.78.72-2.68-.43-.12-.71-.2-.73-.94-.07-3.09,2.86-3,6.44-6.17,2.08-1.84,4.23-9.82,5.5-13.39,1.72,3,5.81,3.54,8.32,3.41-1.41,3.31-3.69,8.12-5.62,9.72a1.89,1.89,0,0,0-.57,1.07C13.7,78.12,13.73,77.46,13,78c-.07,1.64-.4,2.94-1.16,3.3A55.53,55.53,0,0,1,1.46,84.93C1.06,85-.21,85.26,0,84.35Zm2.34-1.24A50.69,50.69,0,0,0,10,80.54c.31-.15.63-.27.75-.7,0,.07.29-1.06.3-1.08-1.28.36-2,.85-4,1.52s-4.6,1.51-4.62,1.52l-.25,1.11A.15.15,0,0,0,2.37,83.11Z"/><path class="cls-4" d="M63.9,60.71a36.26,36.26,0,0,1,8.47,12.77c3.15,6.91,4.79,9.13.8,9.36a10.26,10.26,0,0,0-.24,2.73.74.74,0,0,1-1.48,0,26.69,26.69,0,0,0-.14-2.75,4.07,4.07,0,0,1-3-1c-.93-1.26-1.14-3.85-1.37-5.72-1.88-1.87-4.89-5.26-9.56-9.86C60.51,66.12,63.68,63.62,63.9,60.71Z"/><path class="cls-4" d="M13.33,57.56a34.29,34.29,0,0,1,1.94-3.82A2,2,0,0,1,15.15,52c6-11.07,5.4-10.45,8.46-15.45l9.25,11.77c-3.58,3.57-7.62,9.65-8.59,10.09a5.39,5.39,0,0,1-1.56.45c-.18.41-.59,1.5-1.07,2.44C19.2,62,14.54,60.33,13.33,57.56Z"/><path class="cls-4" d="M24.51,35a6.69,6.69,0,0,0,1.15-4.43c-.68-8.21,1.6-8.13.26-12.25-.16-.5-.39-1.26-1-1a4.67,4.67,0,0,1-1.79.44c-2.71,0-1.31.07-1.57,4.08.65.07,1.31.19,1.34,1.12.14,4.95,1.82,8.14.47,10.53L22,31.78A1.05,1.05,0,0,0,20.86,33l1.33,1.7a4.25,4.25,0,0,1-2.64.57c-2.2-.27-3.71-1.38-4-2.75s.19-2.21-.27-4.07c-.93-3.71-1.4-5-1.21-5.56a1.9,1.9,0,0,1,.49-.6c-.72-2.95-1.13-9.83-.16-11.61.39-.72,2.8-2.51,5.47-3.54a21.31,21.31,0,0,1,6.07-1.08,2.6,2.6,0,0,0-.63,1.46c-.25,2.92,2.64,4.36,5.1,5,2.93.79,6.27,1.78,7.47,2.22a37.3,37.3,0,0,0,1,6.54.78.78,0,0,0,1.13.53c4.13-2.28,5.1-3,5.1-3,2,1.43,2.71,3.45,3.63,6.72a5.3,5.3,0,0,0,4.33,3.8c1.08.15,2.06,0,2.54-.87.2,5.22-1.06,10-2.41,11.5,0,0,4.93,10,6.4,14.14a2.36,2.36,0,0,1-.16,2,9,9,0,0,0,1.74,1.9c-.09,3.07-4.25,5.67-6.53,5.53-.87-.82-1.78-1.68-2.75-2.57a1.27,1.27,0,0,1-1.7-.17c-1.42-1.43-3.12-3.66-4.51-5.33a9.34,9.34,0,0,1-2,3.95l-3.24-4.13c-.41,0-.89.5-1.31.91l3.3,4.19a4.76,4.76,0,0,1-2.94.45,1.94,1.94,0,0,1-1.67-2.06,11.61,11.61,0,0,1,.31-2,2.37,2.37,0,0,1-1.54-.27.39.39,0,0,1-.2-.45c.12-.41.4-1.31.79-2.37.2-.55.42-1.13.67-1.72.17-.42.35-.83.54-1.24.4-.83.81-1.66,1.22-2.49q-.8-.91-1.29-1.41c-1-1-2.13-1.49-3.94-.06l-.37.31L24.51,35Z"/><path class="cls-2" d="M52,10.45a.64.64,0,0,1-.6.47,9.38,9.38,0,0,1-1.22,1.84A1,1,0,0,1,49,13h0l.09-.12.21-.28,0-.06a9.16,9.16,0,0,0,.89-1.37,9.91,9.91,0,0,1-5.5-2,.74.74,0,0,0-1,.16c-.1.13-.18.26-.25.37s-.13.22-.17.3a.23.23,0,0,1-.35.07l-.35-.31a3.06,3.06,0,0,1-1,.87,1.05,1.05,0,0,1-1-.23h0c-.69-.44-.58-1.22-.3-2.07,0-.07.05-.13.07-.19.14-.38.25-.65.33-.86a.92.92,0,0,1-.06-.75,18.78,18.78,0,0,1,.85-1.84c.19-.36.8-1.45,1.29-2.17A.62.62,0,0,1,43,2.42a1.59,1.59,0,0,0,.55-.51C44.5.51,45.17,0,45.56,0a1.94,1.94,0,0,1,1.23.72,5.25,5.25,0,0,1,2.33.44c1.16-.35,1.25-.19,1.67.32A8.94,8.94,0,0,1,52.42,6a3.3,3.3,0,0,1,.5,1.28,1.06,1.06,0,0,1-.05.5S52.22,9.79,52,10.45ZM42.1,6.82l-.23-.35h0a17.07,17.07,0,0,0-.95,2c-.2.55-.3,1.08-.1,1.34a.49.49,0,0,0,.73.13,4.15,4.15,0,0,0,.51-.58L41.74,9a.26.26,0,0,1-.06-.29l.54-1.27A.62.62,0,0,0,42.1,6.82Z"/><path class="cls-3" d="M40.73,30.32l-2.5.7-.44,2.56a.72.72,0,0,1-.71.6.7.7,0,0,1-.59-.32l-1.44-2.17L32.5,32h-.09a.71.71,0,0,1-.65-.4.72.72,0,0,1,.08-.76l1.6-2L32.3,26.47a.71.71,0,0,1,0-.69.72.72,0,0,1,.61-.34.74.74,0,0,1,.25,0l2.42.91,1.85-1.8a.72.72,0,0,1,.5-.2h0a.74.74,0,0,1,.52.22.77.77,0,0,1,.2.52l-.11,2.62L40.87,29a.72.72,0,0,1-.14,1.32Zm-.17-.75L38,28.16a.09.09,0,0,1,0-.06l.12-3a.08.08,0,0,0-.07-.07l0,0-2.12,2.06-.05,0h0L33,26.1h0a.06.06,0,0,0-.06.09l1.29,2.69a.06.06,0,0,1,0,.07l-1.83,2.33a.07.07,0,0,0,.06.11h0L35.32,31h0a.07.07,0,0,1,.06,0L37,33.5a.05.05,0,0,0,0,0,.07.07,0,0,0,.07-.06l.51-2.93a.07.07,0,0,1,0-.05l2.85-.8C40.61,29.68,40.61,29.6,40.56,29.57Z"/></g></g></svg>