<svg xmlns="http://www.w3.org/2000/svg" viewBox="0 0 111.85 81.77"><defs><style>.cls-1{fill:#18285f;}.cls-2{fill:#1e4286;}.cls-3{fill:#fff;}.cls-4{fill:#5f8ac7;}</style></defs><g id="Слой_2" data-name="Слой 2"><g id="men"><path class="cls-1" d="M74.12,13.53c-3.84,2-7.78,4-8.82,4.69-.84,3.27,0,0-.87,3.36a.92.92,0,0,1-1.18.63s-2.59-.86-3.4-1.09a66.42,66.42,0,0,0-7.93,4.65,6.43,6.43,0,0,1-8.49-1.17,3.55,3.55,0,0,1-.79-1.54,9.06,9.06,0,0,1,.65-1.9s2-4.81,8.23-9.29a4,4,0,0,0,1.17,1.77h0c.82,2.49,2.14,4.61,3.34,4.7A6,6,0,0,0,58.51,18c.48.31,1,.64,1.69,1,3.07,1.65,3,.52,3.16-1.14a12.51,12.51,0,0,0-.49-5.26,1.59,1.59,0,0,0,.31-.64,7.22,7.22,0,0,0,.11-2.08l.13-.15a6.42,6.42,0,0,0,.15-1.39,1.09,1.09,0,0,1,.23-.68.56.56,0,0,0,.1-.28,5.82,5.82,0,0,0,0-1.24,42.41,42.41,0,0,1,12-1.94,3.39,3.39,0,0,1,.94,1.21A6.17,6.17,0,0,1,74.12,13.53Z"/><path class="cls-1" d="M62.34,11.28a1.74,1.74,0,0,0,.38-1.13c0,.08,0,.15,0,.22a3.22,3.22,0,0,1-.12,1.51C62.51,11.63,62.41,11.42,62.34,11.28Z"/><path class="cls-1" d="M98.56,57.26c2.79-.37,4-2.64,3.88-3.55h0c.08.62.74,2.27.82,3.28,0,.12,0,.23,0,.35a3,3,0,0,1-.28,1.1c-1.27,2.71-5.76,3.32-8.72,1.28a8.28,8.28,0,0,1-1-3.87C93.3,56.1,96.18,57.57,98.56,57.26Z"/><path class="cls-1" d="M83.77,63c2.52.35,5.88-1,6.07-4h0a2.87,2.87,0,0,0,.07.77,4.62,4.62,0,0,1-.66,2.29,5.47,5.47,0,0,1-4.51,2.25,10.58,10.58,0,0,1-1.54-.1h0c-1.55-.17-3-1.26-3.39-1.23h0a1.8,1.8,0,0,1,.93-.34A16.52,16.52,0,0,1,83.77,63Z"/><path class="cls-2" d="M.06,77.35c.16-1.14,1.21-2,3-1.65,3,.62,5,1.25,9.79,2.06,6.08,1,9.74-1.22,13.72-4.54,8.59-7.16,18-14.92,26.76-22.16a.79.79,0,0,0,.15.12.93.93,0,0,0,.58.18c1.24,0,1.36-.83,1.45-1.54,0-.21,0-.41.07-.61C66.37,40.31,76.06,32.37,82,27.55l1.14-.94,2.18-1.78a4.25,4.25,0,0,1,.39,2L61.5,46.67c-1.19-.26-2.72.89-3.66,1.67A4.59,4.59,0,0,0,56,51.17h0l-1.42,1.17L21,80A7.71,7.71,0,0,1,16.7,81.7c-3.24.32-10.06-.53-13.89-1.21C.26,80-.18,79,.06,77.35Z"/><path class="cls-3" d="M52.77,11a13.58,13.58,0,0,0,6.12-.84l.08,0a10.9,10.9,0,0,1,.5,2.31s0,.07.07.05a3.93,3.93,0,0,0,.68-.32A4,4,0,0,0,61,13.38c.3.28.57.38.88.12l.66-.59a3.67,3.67,0,0,0,.35-.36,12.51,12.51,0,0,1,.49,5.26c-.17,1.66-.09,2.79-3.16,1.14-.65-.35-1.21-.68-1.69-1a6,6,0,0,1-2.48.37c-1.2-.09-2.52-2.21-3.34-4.7a16.7,16.7,0,0,1-.55-2.19c0-.18-.07-.36-.1-.53C52.27,11,52.51,11,52.77,11ZM55,12.67Z"/><path class="cls-3" d="M62.62,11.88a1.17,1.17,0,0,1-.2.31,5.21,5.21,0,0,1-.68.61.3.3,0,0,1-.42,0,2.55,2.55,0,0,1-.5-.85l.25-.15a.05.05,0,0,0,0,0,14.48,14.48,0,0,0-.16-2.66A.07.07,0,0,1,61,9c1-.67,1.24-.82,1.41-.51a4.1,4.1,0,0,1,.35,1.65,1.74,1.74,0,0,1-.38,1.13C62.41,11.42,62.51,11.63,62.62,11.88Z"/><path class="cls-3" d="M55,12.67h0Z"/><path class="cls-4" d="M94.28,59.73c3,2,7.45,1.43,8.72-1.28a3,3,0,0,0,.28-1.1c.07,1,.06,2,.09,3,0,1.42.34,2.89.52,4.3.16,1.22,5.23,3.65,6.42,5.4a2.63,2.63,0,0,1,.14,2.95.06.06,0,0,0,0,.07c.63,1,1.38,1.76,1.41,2s-.34.42-.63.43a24.13,24.13,0,0,1-4.85-1.5c-1-.34-6.75-2.68-7.38-3.39a5.84,5.84,0,0,1-.64-1.21v0c-.16-.19-.31-.38-.46-.58-2.12-2.07-1-3.52-1.07-4.28a0,0,0,0,0,0,0A22.88,22.88,0,0,0,94.28,59.73Z"/><path class="cls-4" d="M89.26,62.07a4.62,4.62,0,0,0,.66-2.29s0,.07,0,.11c.29,1,2,2,2.86,3.38a2.44,2.44,0,0,1,0,3,.07.07,0,0,0,0,.1c.73.58.93.65.77,1-.82,1.62-7.07-.43-10.37-3.14a10.58,10.58,0,0,0,1.54.1A5.47,5.47,0,0,0,89.26,62.07Z"/><path class="cls-4" d="M42.91,39.81c-2.79-3-.87-8.46-.46-13.88.1-1.43,0-2.08.19-2.87a3.55,3.55,0,0,0,.79,1.54,6.43,6.43,0,0,0,8.49,1.17,66.42,66.42,0,0,1,7.93-4.65c.81.23,3.4,1.09,3.4,1.09a.92.92,0,0,0,1.18-.63c.87-3.36,0-.09.87-3.36,1-.71,5-2.72,8.82-4.69a6.17,6.17,0,0,0,2.74-8.17,3.39,3.39,0,0,0-.94-1.21,29.41,29.41,0,0,1,3.8.22A43,43,0,0,1,86.91,6c.42.13.74.42,1.13.58h0c3,.79,3.41,1.14,3.67,2,2.09,7,.41,8,.74,10.82a.06.06,0,0,0,.05.06c.52.15.73.28.66.7-.31,1.85-.37,3.61-.44,4.26A9.16,9.16,0,0,1,90.46,29a4.93,4.93,0,0,1-3.74,1,.07.07,0,0,0,0,.12c2.21,1.5,11.89,11.11,13.3,12.61.25.27-.22,1.1-.37,1.36s1.89,2.18,1.73,5.07c-.07,1.18.66,1,1.1,4.48v0h0c.07.91-1.09,3.18-3.88,3.55-2.38.31-5.26-1.16-5.23-1.4a8.08,8.08,0,0,0-1.84-2,.07.07,0,0,0-.06,0c-.22.09-.58.32-.88,0a61,61,0,0,0-4.4-4.41,34.68,34.68,0,0,0-4.3-3.32s-.12,0-.08.09a31.66,31.66,0,0,0,3,4,47.39,47.39,0,0,0,3.5,3.65A.79.79,0,0,1,88.4,55a.09.09,0,0,0,0,.07,4.7,4.7,0,0,1,1.44,4h0c-.19,3-3.55,4.38-6.07,4a16.52,16.52,0,0,0-3.08-.41,1.8,1.8,0,0,0-.93.34h0c-.91.58-1.7,1.68-5.63-1.88-8.71-7.9-9.6-9.35-10.91-10.84-.13-.15-.34-.47-.34-.47l-.44.33c.13,1.88-.78,2.89-3.22,3.26-3.47.52-4.28-.61-4.45-.82v0h0c0-.05-.07-.12-.11-.18L56,51.17h0a4.59,4.59,0,0,1,1.81-2.83c.94-.78,2.47-1.93,3.66-1.67L85.66,26.79a4.25,4.25,0,0,0-.39-2l-2.18,1.78a13,13,0,0,1,.43-2.5,14,14,0,0,1,2.36-2.24,0,0,0,0,0,0-.05c-.12-1.21-.31-2.86.13-3.44a17.1,17.1,0,0,1-.74-3.18,5.93,5.93,0,0,0-2.23.62,36.74,36.74,0,0,1-5.58,1.28C77,18.77,78.57,21.87,79,23.29c.94,3-1.11,1.14,2.94,4.26-5.89,4.82-15.58,12.76-26.39,21.66,0,.2-.05.4-.07.61-.09.71-.21,1.54-1.45,1.54a.93.93,0,0,1-.58-.18.79.79,0,0,1-.15-.12,4.12,4.12,0,0,1-.8-2.49,37.25,37.25,0,0,1-1.28-3.68.08.08,0,0,0,0,0c-.71-.25-1.68-.64-1.88-1.05a.9.9,0,0,1,0-.7.06.06,0,0,0,0-.08C45.47,41.1,44.34,41.33,42.91,39.81Z"/><path class="cls-2" d="M63.8,7.61a1.09,1.09,0,0,0-.23.68,6.42,6.42,0,0,1-.15,1.39l-.13.15a7.22,7.22,0,0,1-.11,2.08,1.59,1.59,0,0,1-.31.64,3.67,3.67,0,0,1-.35.36l-.66.59c-.31.26-.58.16-.88-.12a4,4,0,0,1-.76-1.12,3.93,3.93,0,0,1-.68.32s-.07,0-.07-.05a10.9,10.9,0,0,0-.5-2.31l-.08,0a13.58,13.58,0,0,1-6.12.84,6.75,6.75,0,0,1-.72-.12l0,.21.06.32a16.7,16.7,0,0,0,.55,2.19h0a4,4,0,0,1-1.17-1.77,6.77,6.77,0,0,1-.33-1.25,1.26,1.26,0,0,1-.72-.76,13.86,13.86,0,0,1-.27-3,.67.67,0,0,1,.28-.52,1.71,1.71,0,0,0,.62-.86c.49-1.17,1.75-4,4.31-5.06,1.85-.75,2.23-.34,3.35.35,1.48-.56,2.05-.38,3,.71a13.27,13.27,0,0,1,1.72,3.22,3.76,3.76,0,0,1,.4,1.41,5.82,5.82,0,0,1,0,1.24A.56.56,0,0,1,63.8,7.61Zm-1.06,2.76c0-.07,0-.14,0-.22a4.1,4.1,0,0,0-.35-1.65c-.17-.31-.44-.16-1.41.51a.07.07,0,0,0,0,.06,14.48,14.48,0,0,1,.16,2.66.05.05,0,0,1,0,0l-.25.15a2.55,2.55,0,0,0,.5.85.3.3,0,0,0,.42,0,5.21,5.21,0,0,0,.68-.61,1.17,1.17,0,0,0,.2-.31A3.22,3.22,0,0,0,62.74,10.37Z"/><path class="cls-3" d="M70.74,30.58H68.31L67,32.67a.73.73,0,0,1-.61.33.72.72,0,0,1-.7-.56l-.46-2.06L63,30.08a.72.72,0,0,1-.61-.56.74.74,0,0,1,.31-.76l2.11-1.34-.16-2.23a.67.67,0,0,1,.19-.54.68.68,0,0,1,.52-.23.71.71,0,0,1,.43.14l1.76,1.33,2.24-1.08a.64.64,0,0,1,.31-.07.7.7,0,0,1,.6.33.71.71,0,0,1,0,.68l-1,2.11,1.48,1.5a.73.73,0,0,1,.15.78A.72.72,0,0,1,70.74,30.58Zm0-.76L69,28A.08.08,0,0,1,69,28l1.14-2.47a.07.07,0,0,0-.06-.09h0L67.5,26.63h-.07l-2-1.54h0a.06.06,0,0,0-.06.07l.18,2.58s0,0,0,.06l-2.39,1.53a.06.06,0,0,0,0,.12l2.66.35a.1.1,0,0,1,.06,0l.55,2.47a.06.06,0,0,0,.06.05.09.09,0,0,0,.06,0L67.94,30a.05.05,0,0,1,0,0h2.75A.06.06,0,0,0,70.78,29.82Z"/></g></g></svg>