<svg xmlns="http://www.w3.org/2000/svg" viewBox="0 0 123.27 87.11"><defs><style>.cls-1{fill:#18285f;}.cls-2{fill:#1e4286;}.cls-3{fill:#fff;}.cls-4{fill:#5f8ac7;}</style></defs><g id="Слой_2" data-name="Слой 2"><g id="men"><path class="cls-1" d="M107.92,11.2v0h0Z"/><polygon class="cls-1" points="99.36 11.7 99.36 11.7 99.36 11.7 99.36 11.7"/><path class="cls-1" d="M119.81,15.65c-1.1-2-5.79-3.56-11.43-4.42-.09.68-.23,1.1-.58,1.06l-.06,0h0a4.46,4.46,0,0,1-2.28,3.2,1.44,1.44,0,0,0-.49.43,7.63,7.63,0,0,1-1.09,1.28c-.74.71-1.3.85-2,.06a16.35,16.35,0,0,1-1.81-2.13,6.44,6.44,0,0,1-.26-2.35h0s-.33,0-.43-.11-.1-.06-.25-1.13l.13.12a1.14,1.14,0,0,1-.34-.44,6.42,6.42,0,0,1-.24-.66c-4.38,0-8.49.56-11.23,1.71a9,9,0,0,0-1.88,1.09,1.8,1.8,0,0,0-.36,1.82c.1.28,1,3.92,4.2,3.35a64.78,64.78,0,0,1,11-.67l1.87,2.25a.51.51,0,0,0,.78,0L104.82,18c3.32-.27,8.12.92,11.24,1.85,1.08.32,3,.17,3.91-2.54A2.1,2.1,0,0,0,119.81,15.65Z"/><path class="cls-1" d="M65.59,55.07q-1.78,1.83-3.36,3.62a9.08,9.08,0,0,0,6.46,6.71c2.92-2.56,2.89-3,3.71-3.6A9.24,9.24,0,0,1,65.59,55.07Z"/><path class="cls-1" d="M89.35,59.42c-.94,1.15-2.28,2.37-2.44,2.72C86,64.28,90.79,69,94,67.9h0c.49-.17,3.49-4.48,3.49-4.48C93.35,65.41,89.58,60.69,89.35,59.42Z"/><path class="cls-2" d="M108.37,37.12,94.83,39.29v0c.47.54.94,1.06,1.39,1.59l13.14-2.1-.23-1.15A.67.67,0,0,0,108.37,37.12Z"/><path class="cls-2" d="M86.7,41.3a7.26,7.26,0,0,1-.46-.63l-12.16,2L26.74,50.24c-5.61.91-9.78,1-14.7-3.14-3.91-3.26-5.36-4.88-7.71-7-1.4-1.27-2.81-1-3.55-.09-1.09,1.38-1.23,2.52.82,4.27,3.09,2.62,8.77,7,11.85,8.39a8,8,0,0,0,4.73.74l54.3-8.71,14.94-2.39A12.44,12.44,0,0,0,86.7,41.3Z"/><path class="cls-3" d="M98.59,10.27a2,2,0,0,0,.07.26,6.42,6.42,0,0,0,.24.66,1.14,1.14,0,0,0,.34.44l.12.07h0V10.36A1.37,1.37,0,0,1,98.59,10.27Z"/><path class="cls-3" d="M108,8a.53.53,0,0,0-.28-.47,8.5,8.5,0,0,0-2.91-.36,12.94,12.94,0,0,0-4.45.67.65.65,0,0,0-.37.52c0,.39,0,.89,0,1.46,0,0,0,0,0,.07v2.62a.21.21,0,0,1-.19.21,6.44,6.44,0,0,0,.26,2.35,16.35,16.35,0,0,0,1.81,2.13c.7.79,1.26.65,2-.06A7.63,7.63,0,0,0,105,15.89a1.44,1.44,0,0,1,.49-.43,4.46,4.46,0,0,0,2.28-3.2c.08-.34.13-.69.18-1.06v0h0c0-.37.08-.75.1-1.14,0-.07,0-.16,0-.26h0C108.05,9.2,108.05,8.62,108,8Z"/><path class="cls-4" d="M107.92,11.16c0-.37.08-.75.1-1.14C108,10.41,108,10.79,107.92,11.16Z"/><path class="cls-4" d="M107.74,12.26c.08-.34.13-.69.18-1.06C107.87,11.57,107.82,11.92,107.74,12.26Z"/><path class="cls-4" d="M99.36,11.7l-.12-.07h0Z"/><path class="cls-4" d="M86.91,62.14c-6.12,5.25-7.82,12.51-8,12.83-1.47,2.18-4,6.58-2.3,8.37a9.59,9.59,0,0,0-.16,3.6.82.82,0,0,0,.39.17l2.06-2.81c2.73.75,2.29-1.06,4.33-5.54C83.57,77.93,90,73.63,94,67.9,90.79,69,86,64.28,86.91,62.14Z"/><path class="cls-4" d="M62.23,58.69a80.41,80.41,0,0,0-9,12.41A35.85,35.85,0,0,0,47,77.65a2.12,2.12,0,0,0,0,2.69,16.14,16.14,0,0,1-1.55,2.08c-.26.3.27.82.54.52a10.39,10.39,0,0,1,2-1.81,2.77,2.77,0,0,0,3.55-.58,64,64,0,0,0,5.52-5.21c2.41-1.63,11.6-9.94,11.61-9.94A9.08,9.08,0,0,1,62.23,58.69Z"/><path class="cls-4" d="M122.9,27.26c-.86-6.2-1.67-8.28-2.86-11a1.79,1.79,0,0,0-.23-.63,2.1,2.1,0,0,1,.16,1.63c-.86,2.71-2.83,2.86-3.91,2.54-3.12-.93-7.92-2.12-11.24-1.85l-1.75,2.11a.51.51,0,0,1-.78,0l-1.87-2.25a64.78,64.78,0,0,0-11,.67c-3.24.57-4.1-3.07-4.2-3.35a1.8,1.8,0,0,1,.36-1.82c-3,2.2-5.59,6.25-7.13,9.12C74,30.73,76.61,32.7,78.41,35c.16.2.91,1.11-.43,2.7-1.18,1.4-2.54,3.16-3.9,4.93l12.16-2a7.26,7.26,0,0,0,.46.63,12.44,12.44,0,0,1,.72,1L72.48,44.71c-2.13,2.75-4.12,5.19-5.31,5.92a3.9,3.9,0,0,0,.39,2.48c-.68.65-1.34,1.31-2,2A9.24,9.24,0,0,0,72.4,61.8h0c1-.6,1.44-.22,4.42-2.54a4.39,4.39,0,0,0,1.36,0c1-1.4,3.69-5.24,11-10.68.25,1,.64,2.06.92,3.1a6.66,6.66,0,0,1-.27,5.16,4.12,4.12,0,0,0,.41,1.32,5.66,5.66,0,0,1-.83,1.27c.23,1.27,4,6,8.12,4a9,9,0,0,0,4-4.15c3-.86,3.49-11.39,3.38-16,3.14.81,3.58.75,4.38.18,1.15-.4,3.3-2.23,4.2-2.42.23.14,4-.91,3.76-1.58C123.56,38,123.77,33.54,122.9,27.26ZM96.23,40.9c-.45-.53-.92-1-1.39-1.59v0l13.54-2.17a.67.67,0,0,1,.77.53l.23,1.15Zm15.07-7.28c-.62,1-.75.93-2,1.21.76-1.24.78-2.09,2.08-3.83.5-.56,1.1-1.05,1.54-1.64.13.42.25.84.36,1.27C113.86,32.9,112,32.46,111.3,33.62Z"/><path class="cls-2" d="M98.18,9.92a.66.66,0,0,0,.34.32l.07,0a1.37,1.37,0,0,0,.77.09V11.7h0l-.11-.06h0l-.13-.12c.15,1.07.21,1.08.25,1.13s.42.12.43.11h0a.21.21,0,0,0,.19-.21V9.92s0-.05,0-.07c0-.57,0-1.07,0-1.46a.65.65,0,0,1,.37-.52,12.94,12.94,0,0,1,4.45-.67,8.5,8.5,0,0,1,2.91.36A.53.53,0,0,1,108,8c0,.59,0,1.17,0,1.73h0c0,.1,0,.19,0,.26,0,.39,0,.77-.1,1.14h0v0c0,.37-.1.72-.18,1.06h0l.06,0c.35,0,.49-.38.58-1.06,0-.33.08-.73.12-1.17a2.58,2.58,0,0,0,.36-.2.46.46,0,0,0,0-.09,11.46,11.46,0,0,0,.17-2.27.72.72,0,0,1,.3-.56l.06-.06a12.47,12.47,0,0,0-.76-3.21l0,0a1.14,1.14,0,0,1-.5-.56,3.9,3.9,0,0,0-.19-.35,5.86,5.86,0,0,0-3-2.72.17.17,0,0,0-.21.09,3.37,3.37,0,0,0-.1.34,8.34,8.34,0,0,0-3.82.24c-.47-.46-.5-.55-.75-.43a4,4,0,0,0-1.91,2.07,6,6,0,0,0-.4,1.56,1,1,0,0,1-.33.62,8,8,0,0,0,.14,3.88C97.93,8.8,97.61,8.24,98.18,9.92Z"/><path class="cls-3" d="M97.39,28.11l-1.34,2.37a.72.72,0,0,0,0,.71.71.71,0,0,0,.62.35.7.7,0,0,0,.31-.07l2.55-1.23,1.71,1.39a.65.65,0,0,0,.45.16.71.71,0,0,0,.71-.68l.13-2.54L105.08,27a.72.72,0,0,0,.32-.77.71.71,0,0,0-.62-.55l-2.32-.27-.22-2.21a.71.71,0,0,0-.71-.64.75.75,0,0,0-.59.29l-1.72,2.4-2.7.06A.72.72,0,0,0,96,26.48ZM96.53,26l3-.07a.05.05,0,0,0,0,0l1.9-2.64.06,0a.06.06,0,0,1,.06.06l.27,2.68a0,0,0,0,0,0,.05l2.8.32a.07.07,0,0,1,0,.12l-2.8,1.76a.05.05,0,0,0,0,.05l-.15,2.85a.06.06,0,0,1-.06.06h0l-2-1.63a.05.05,0,0,0,0,0h0l-2.89,1.4h0a.07.07,0,0,1-.06-.1l1.54-2.72a.06.06,0,0,0,0-.07l-1.67-1.95A.06.06,0,0,1,96.53,26Z"/></g></g></svg>