<svg xmlns="http://www.w3.org/2000/svg" viewBox="0 0 90.2 81.47"><defs><style>.cls-1{fill:none;}.cls-2{fill:#5f8ac7;}.cls-3{fill:#fff;}.cls-4{fill:#1e4286;}.cls-5{fill:#18285f;}</style></defs><g id="Слой_2" data-name="Слой 2"><g id="men"><path class="cls-1" d="M72.29,71.52a42.25,42.25,0,0,1-4.2-1.61c-.36-.16-.71-.3-.84-.79,0,0-.06-.2-.13-.47,1.29.54,2.73,1.11,3.61,1.45A5.68,5.68,0,0,0,72.29,71.52Z"/><path class="cls-2" d="M13.85,46.37a54.51,54.51,0,0,1,3.34-7.32c.24-.47.48-.9.7-1.3l.4-.71-1.72-2.72c-.16-.79-.26-1.6-.34-2.4a18.41,18.41,0,0,1,2.21-11.5A2.75,2.75,0,0,1,19.86,19c3.07-1.24,5.85-5.31,8.28-7,.16-.11.32-.2.47-.31A4.13,4.13,0,0,0,28.24,14a5.24,5.24,0,0,0,4.88,4.51l11.05.66,2.48,4.74a.37.37,0,0,0,.58.09l4.19-4,9.92,1.78c3.61.49,5.41-1.53,5.84-4.26a3.93,3.93,0,0,0-1.05-3.21,22.61,22.61,0,0,1,4.4,4.5c.71.93,1.37,1.9,2,2.86l.09-.29c.27-.91.65-2.88,1.54-3.14a7.94,7.94,0,0,1,6.29,1.32c4,2.87,5.32,9.77,3.3,14.45-2.18,5.07-8.27,4.83-11.07,4.43h0a5.27,5.27,0,0,1-1.23-.34,12.12,12.12,0,0,1-4.23-2.71c-2-1.89-4-3.54-6.06-5.24a49.45,49.45,0,0,0-4.74,4.37,33.33,33.33,0,0,1,6.2,4c-2.94,1.21-8.12,3.83-11.08,7.5a1.58,1.58,0,0,0,.08,2.11c12.48,12.09,16.65,19.09,19.1,22-.88-.34-2.32-.91-3.61-1.45.07.27.14.51.13.47.13.49.48.63.84.79a42.25,42.25,0,0,0,4.2,1.61l.24.11A16.42,16.42,0,0,0,78.88,73l.33,1.22c.28,1-1.15.74-1.6.64A62.21,62.21,0,0,1,66,70.76c-.77-.37-1.15-1.6-1.27-3.19a1.51,1.51,0,0,1-.31-.2c-.86-.74-.56-1.81-.8-2.19s-.65-.78-1.3-1.62c-.26-.33-9.69-12.63-19.85-17.09a2.12,2.12,0,0,0,.11-1.33C42,43.68,35.41,39.6,31.61,38a6.16,6.16,0,0,1-.56,1.12C29.17,42.47,27.87,45,26.93,47c-.29.59-.54,1.13-.77,1.61a27.79,27.79,0,0,1-2.1,4.19,2.65,2.65,0,0,1-.86.75,3.11,3.11,0,0,1-2.47.1c-.77-.27-1.22-.57-3.59-2.24l-2.45-1.73C13.62,48.88,13.2,48.3,13.85,46.37Z"/><path class="cls-3" d="M41.61,34.69a.73.73,0,0,1-.62-.36.74.74,0,0,1,0-.72l1.21-2.07-1.29-1.63a.72.72,0,0,1-.08-.76.71.71,0,0,1,.64-.4h.05L44,28.9l1.55-2a.72.72,0,0,1,.57-.29h0a.71.71,0,0,1,.71.65L47,29.3l2.15.44a.71.71,0,0,1,.2,1.33l-2.28,1.25L47,34.63a.71.71,0,0,1-.71.68.66.66,0,0,1-.48-.19L44.2,33.7l-2.32.94A.76.76,0,0,1,41.61,34.69ZM44.29,33h.07l1.84,1.67s0,0,0,0a.06.06,0,0,0,.06-.06L46.43,32a.06.06,0,0,1,0-.06L49,30.5a.07.07,0,0,0,0-.12l-2.58-.52s0,0,0-.06l-.25-2.53a.06.06,0,0,0-.06-.06.05.05,0,0,0,0,0l-1.74,2.3a.05.05,0,0,1-.05,0h0l-2.73-.17h0a.06.06,0,0,0,0,.1L43,31.45a.06.06,0,0,1,0,.07l-1.41,2.42a.06.06,0,0,0,0,.1h0Z"/><path class="cls-4" d="M0,12.13a1.06,1.06,0,0,1,.56-.68l.2-.1a1.08,1.08,0,0,1,1.4.39L16.57,34.32,18.29,37l-.4.71c-.22.4-.46.83-.7,1.3L.18,13A1.09,1.09,0,0,1,0,12.13Z"/><path class="cls-4" d="M26.93,47,28,48.6l6.15,9.27L44.47,73.4a4.13,4.13,0,0,0,3.61,1.75c8.06-.24,12.64-1,16.85-1.37.92-.08,1.67-.1,2.2.72a14.64,14.64,0,0,1,1.59,2.8c1.08,2.3.1,2.06-3,2.48-3.33.45-16.63,1.7-19.12,1.69a5.51,5.51,0,0,1-4.2-2.08L30.53,62.16l-6.47-9.41a27.79,27.79,0,0,0,2.1-4.19C26.39,48.08,26.64,47.54,26.93,47Z"/><path class="cls-4" d="M55.44,9.57c-2,5.36-1.95,5.33-4.21,6.7-1.88,1.14-1.83,5.62-3.69,5.37s-1-4.56-2.17-6c-1.72-2.15-2.2-2-2.45-5.28l-.17-2.11c0-.55.06.77-.19-2.44,0-.18.21-.34.53-.46a.85.85,0,0,0,.51-.66,6.29,6.29,0,0,1,3.47-4h0c.27,1.16.84,4.12,1,4.93a.27.27,0,0,0,.25.23L49.47,6l1.17.16a.28.28,0,0,0,.3-.16c.34-.76,1.56-3.48,2.11-4.55,1.54,1.24,2.59,3.12,2.44,4.65a.88.88,0,0,0,.35.8c.27.19.46.42.36.68ZM46,14A4.21,4.21,0,0,0,47.38,15a.18.18,0,0,0,.26-.14l.16-1.38a.18.18,0,0,0-.19-.2,4.85,4.85,0,0,0-1.51.37A.19.19,0,0,0,46,14Zm-.84-1.23a.2.2,0,0,0,.26.09,5.58,5.58,0,0,1,.67-.28.07.07,0,0,0,0-.13A5.73,5.73,0,0,1,44.61,11a0,0,0,0,0-.06,0A9.28,9.28,0,0,0,45.2,12.73Zm1.4-4.4a17.85,17.85,0,0,1-2.06-.52s-.07,0-.07.05A3.68,3.68,0,0,0,44.58,9a.06.06,0,0,0,.08,0,6,6,0,0,1,1.93-.54A.06.06,0,0,0,46.6,8.33ZM48,9.43a6.52,6.52,0,0,0-2.76.43.25.25,0,0,0-.1.38A4.81,4.81,0,0,0,47.71,12a.24.24,0,0,0,.3-.21l.25-2.1A.25.25,0,0,0,48,9.43Zm3.14,3.72a4.83,4.83,0,0,1,.58.43.2.2,0,0,0,.28,0,8.7,8.7,0,0,0,1-1.5s0-.06,0,0a5.74,5.74,0,0,1-1.82,1A.07.07,0,0,0,51.18,13.15Zm-1.86.53-.17,1.39a.18.18,0,0,0,.22.2,4.39,4.39,0,0,0,1.57-.71.19.19,0,0,0,0-.3,4.79,4.79,0,0,0-1.4-.73A.17.17,0,0,0,49.32,13.68Zm.74-4a.23.23,0,0,0-.28.21L49.53,12a.24.24,0,0,0,.26.27,4.79,4.79,0,0,0,2.76-1.18.26.26,0,0,0,0-.4A6.68,6.68,0,0,0,50.06,9.68ZM53.67,9A12.57,12.57,0,0,1,51.8,9a.06.06,0,0,0,0,.12,6.46,6.46,0,0,1,1.56.86.05.05,0,0,0,.09,0,3.42,3.42,0,0,0,.31-.9A.06.06,0,0,0,53.67,9Z"/><path class="cls-3" d="M46.59,8.45A6,6,0,0,0,44.66,9a.06.06,0,0,1-.08,0,3.68,3.68,0,0,1-.11-1.1s0-.07.07-.05a17.85,17.85,0,0,0,2.06.52A.06.06,0,0,1,46.59,8.45Z"/><path class="cls-3" d="M45.18,10.24a.25.25,0,0,1,.1-.38A6.52,6.52,0,0,1,48,9.43a.25.25,0,0,1,.22.28L48,11.81a.24.24,0,0,1-.3.21A4.81,4.81,0,0,1,45.18,10.24Z"/><path class="cls-3" d="M49.55,13.53a4.79,4.79,0,0,1,1.4.73.19.19,0,0,1,0,.3,4.39,4.39,0,0,1-1.57.71.18.18,0,0,1-.22-.2l.17-1.39A.17.17,0,0,1,49.55,13.53Z"/><path class="cls-3" d="M53,12s.07,0,0,0a8.7,8.7,0,0,1-1,1.5.2.2,0,0,1-.28,0,4.83,4.83,0,0,0-.58-.43.07.07,0,0,1,0-.13A5.74,5.74,0,0,0,53,12Z"/><path class="cls-3" d="M44.61,11a5.73,5.73,0,0,0,1.53,1.41.07.07,0,0,1,0,.13,5.58,5.58,0,0,0-.67.28.2.2,0,0,1-.26-.09,9.28,9.28,0,0,1-.65-1.7A0,0,0,0,1,44.61,11Z"/><path class="cls-3" d="M46.1,13.67a4.85,4.85,0,0,1,1.51-.37.18.18,0,0,1,.19.2l-.16,1.38a.18.18,0,0,1-.26.14A4.21,4.21,0,0,1,46,14,.19.19,0,0,1,46.1,13.67Z"/><path class="cls-3" d="M51.8,9a12.57,12.57,0,0,0,1.87,0,.06.06,0,0,1,.06.08,3.42,3.42,0,0,1-.31.9.05.05,0,0,1-.09,0,6.46,6.46,0,0,0-1.56-.86A.06.06,0,0,1,51.8,9Z"/><path class="cls-3" d="M52.55,11.06a4.79,4.79,0,0,1-2.76,1.18.24.24,0,0,1-.26-.27l.25-2.08a.23.23,0,0,1,.28-.21,6.68,6.68,0,0,1,2.47,1A.26.26,0,0,1,52.55,11.06Z"/><path class="cls-5" d="M28.24,14a4.13,4.13,0,0,1,.37-2.29C32.45,9.2,35.8,9,40.61,9.08c.73-.3,1.44-.57,2.14-.8l.17,2.11c.25,3.27.73,3.13,2.45,5.28,1.14,1.41.31,5.72,2.17,6s1.81-4.23,3.69-5.37c2.26-1.37,2.16-1.34,4.21-6.7a12.48,12.48,0,0,1,1.24,1,28.5,28.5,0,0,1,7.75,2.63,14.35,14.35,0,0,1,1.7,1.08,3.93,3.93,0,0,1,1.05,3.21c-.43,2.73-2.23,4.75-5.84,4.26L51.42,20l-4.19,4a.37.37,0,0,1-.58-.09l-2.48-4.74-11.05-.66A5.24,5.24,0,0,1,28.24,14Z"/><path class="cls-5" d="M62.63,38.46c.58-.24,1.08-.43,1.46-.55a2,2,0,0,1,2,.49c12,10.73,17,19.11,19.67,22.2,5.63,6.42,5.86,6.19.81,9.17-3.1,1.84-5.07,3.08-7.71,3.19a16.42,16.42,0,0,1-6.35-1.33l-.24-.11a5.68,5.68,0,0,1-1.56-1.42c-2.45-2.94-6.62-9.94-19.1-22A1.58,1.58,0,0,1,51.55,46C54.51,42.29,59.69,39.67,62.63,38.46Z"/><path class="cls-5" d="M9.47,62.59c.24-.86,3.69-5.89,7.67-11.23,2.37,1.67,2.82,2,3.59,2.24a3.11,3.11,0,0,0,2.47-.1,2.65,2.65,0,0,0,.86-.75l6.47,9.41a59.85,59.85,0,0,0-4.16,5.32C26,69.9,25.49,72.16,25.06,74c-.21.85-.38,1.5-2.1,1.35C19.39,75,9.73,73.46,8.71,70.66,8,68.69,8.92,64.58,9.47,62.59Z"/><path class="cls-5" d="M26.93,47c.94-2,2.24-4.48,4.12-7.81A6.16,6.16,0,0,0,31.61,38c3.8,1.58,10.43,5.66,10.93,7.12a2.12,2.12,0,0,1-.11,1.33c-.81,2.52-4.51,7-8.25,11.4L28,48.6Z"/><path class="cls-5" d="M53.05,1.48C52.5,2.55,51.28,5.27,50.94,6a.28.28,0,0,1-.3.16L49.47,6l-1.15-.12a.27.27,0,0,1-.25-.23c-.16-.81-.73-3.77-1-4.93h0A.24.24,0,0,1,47.2.48a6.34,6.34,0,0,1,3-.45A6.1,6.1,0,0,1,53,1.18a.23.23,0,0,1,.06.29Z"/></g></g></svg>