<svg xmlns="http://www.w3.org/2000/svg" viewBox="0 0 122.32 122.32"><defs><style>.cls-1{fill:#fff;}</style></defs><g id="Layer_2" data-name="Layer 2"><g id="Layer_1-2" data-name="Layer 1"><rect width="122.32" height="122.32" rx="35.44"/><path class="cls-1" d="M71.17,81.14c6.43,0,11.83-4.81,14.21-11.85H74.21a4.17,4.17,0,0,1-3,1.85,4.17,4.17,0,0,1-3-1.85H57C59.33,76.33,64.73,81.14,71.17,81.14Z"/><path class="cls-1" d="M75.64,12.34c-16.73,0-30.81,15.75-34.7,37-.3,1.63-.54,3.3-.72,5H26.49l5-5L37.8,43l-7.07-7.07L17.35,49.29l-1.07,1.07L7.35,59.29l8.93,8.93,1.07,1.07L30.73,82.67,37.8,75.6l-6.31-6.31-5-5H84.25v-10H66.55a20.71,20.71,0,0,1,2.06-5c2-3.42,4.77-5.6,7.82-5.6s5.83,2.18,7.81,5.6a21.21,21.21,0,0,1,2.22,5.65,26,26,0,0,1,.75,6.22A41.7,41.7,0,0,1,86.46,69v.29h0C84.06,81,76.83,89.87,68.53,89.87S53,81,50.66,69.29H40.37C43.21,92.35,57.94,110,75.64,110c19.72,0,35.77-21.9,35.77-48.82S95.36,12.34,75.64,12.34Zm0,87.64a17.26,17.26,0,0,1-3.67-.4c14.19-2.3,25.24-18.65,25.24-38.42,0-15.41-9.13-27.47-20.78-27.47C68,33.69,60.91,40,57.62,49.29a32.75,32.75,0,0,0-1.35,5h-6c.21-1.71.48-3.38.83-5,3.34-15.62,13.07-26.95,24.54-26.95,14.21,0,25.77,17.41,25.77,38.82S89.85,100,75.64,100Z"/></g></g></svg>