<svg xmlns="http://www.w3.org/2000/svg" viewBox="0 0 76.4 114.96"><g id="Layer_2" data-name="Layer 2"><g id="Layer_1-2" data-name="Layer 1"><path d="M38.31,115C21.1,115,7.55,104.5,3,87.65,1.12,81,0,64.31,0,57.48S1.12,34,3,27.31C7.55,10.46,21.1,0,38.31,0S68.92,10.45,73.67,27.27h0c3.09,11,4.16,46.92,0,60.54C68.31,105.07,55.44,115,38.31,115Zm0-105C25.62,10,16,17.46,12.59,29.94,11.28,34.75,10,49.77,10,57.48S11.28,80.22,12.59,85C16,97.51,25.62,105,38.31,105,54.48,105,61.25,94,64.08,84.86,67.62,73.37,66.65,39.24,64,30,62.35,24,56.45,10,38.31,10Z"/><path d="M44,27.94a5.93,5.93,0,0,0-11.48,0A31.16,31.16,0,0,0,32,33.36a31.18,31.18,0,0,0,.52,5.43,5.93,5.93,0,0,0,11.48,0C44.66,36.47,44.49,29.85,44,27.94Z"/></g></g></svg>