<svg version="1.1"
     xmlns="http://www.w3.org/2000/svg"
     xmlns:xlink="http://www.w3.org/1999/xlink"
	 style="display:none"
	 >
  <defs>
    <symbol id="vk-icon" viewBox="0 0 33 19">
      <path d="M16.1 18.9h2c0 0 0.6-0.1 0.9-0.4 0.3-0.3 0.3-0.9 0.3-0.9s0-2.6 1.2-3c1.2-0.4 2.8 2.6 4.4 3.7 1.2 0.9 2.2 0.7 2.2 0.7l4.4-0.1c0 0 2.3-0.1 1.2-2 -0.1-0.1-0.6-1.3-3.3-3.8 -2.8-2.6-2.4-2.1 0.9-6.6 2-2.7 2.8-4.3 2.6-5.1 -0.2-0.7-1.7-0.5-1.7-0.5l-5 0c0 0-0.4 0-0.6 0.1 -0.3 0.2-0.4 0.5-0.4 0.5s-0.8 2.1-1.8 3.9c-2.2 3.7-3.1 3.9-3.4 3.7 -0.8-0.5-0.6-2.2-0.6-3.3 0-3.6 0.6-5.1-1.1-5.5 -0.5-0.1-0.9-0.2-2.3-0.2 -1.8 0-3.3 0-4.1 0.4 -0.6 0.3-1 0.9-0.7 0.9 0.3 0 1.1 0.2 1.5 0.7 0.5 0.7 0.5 2.2 0.5 2.2s0.3 4.3-0.7 4.8c-0.7 0.4-1.6-0.4-3.6-3.8C7.7 3.8 7 1.9 7 1.9S6.8 1.5 6.5 1.3C6.2 1.1 5.8 1 5.8 1L1.1 1.1c0 0-0.7 0-1 0.3 -0.2 0.3 0 0.8 0 0.8s3.7 8.6 7.9 13C11.8 19.2 16.1 18.9 16.1 18.9" fill="#FFF"/>
    </symbol>
    <symbol id="twitter-icon" viewBox="0 0 31 24">
      <path d="M29.2 2.8c-1.1 0.5-2.2 0.8-3.5 1 1.3-0.7 2.2-1.9 2.7-3.3 -1.2 0.7-2.5 1.2-3.8 1.5C23.5 0.7 21.9 0 20.2 0c-3.3 0-6 2.7-6 6.1 0 0.5 0.1 0.9 0.2 1.4C9.2 7.2 4.8 4.8 1.8 1.1 1.3 2 1 3 1 4.2c0 2.1 1.1 4 2.7 5 -1 0-1.9-0.3-2.7-0.8v0.1c0 2.9 2.1 5.4 4.9 5.9 -0.5 0.1-1 0.2-1.6 0.2 -0.4 0-0.8 0-1.1-0.1 0.8 2.4 3 4.2 5.7 4.2 -2.1 1.6-4.7 2.6-7.5 2.6 -0.5 0-1 0-1.4-0.1C2.4 23 5.6 24 9 24c11.1 0 17.2-9.2 17.2-17.2 0-0.3 0-0.5 0-0.8C27.4 5.1 28.4 4.1 29.2 2.8" fill="#FFF"/>
    </symbol>
    <symbol id="facebook-icon" viewBox="0 0 15 30">
      <path d="M10 10V7C10 5.7 10.3 5 12.4 5H15V0h-4C6 0 4 3.3 4 7v3H0v5h4v15h6V15h4.4L15 10H10" fill="#FFF"/>
    </symbol>
    <symbol id="google-plus-icon" viewBox="0 0 28 30">
      <path d="M17.3 19.1C16.7 18.3 16 17.7 15.3 17.1 14.6 16.5 13.7 16 13.2 15.2 12.1 13.4 14.5 11.9 15.5 10.8 17.9 8.2 17.3 3.3 14.3 1.4 15 1.4 16 1.6 16.7 1.4 17.6 1.2 18.4 0.4 19.1 0 16.6 0 14 0 11.5 0 9.1 0 6.6 0.4 4.7 1.9 2.5 3.7 1.4 6.6 2.3 9.4 3.3 12.6 6.6 13.9 9.8 13.5 9.6 14.2 9.3 14.7 9.4 15.4 9.5 16.3 10 17.1 10.5 17.8 7.7 17.9 4.3 18.4 2 20.2 -0.1 22-0.7 25.3 1.2 27.5 3.1 29.7 6.7 30.2 9.5 30 12 29.8 14.5 29 16.3 27.2 18.4 25.1 19.2 21.6 17.3 19.1 16.9 18.7 17.6 19.5 17.3 19.1L17.3 19.1 17.3 19.1ZM10.3 12.6C5.2 12.6 2.9 1.3 8.8 1.3 11.7 1.3 13 4.5 13.5 7 13.9 9.4 13.4 12.6 10.3 12.6L10.3 12.6 10.3 12.6ZM15.3 26.1C13.6 29 8.9 28.7 6.3 27.5 3.5 26.3 2.1 22.8 4.7 20.6 5.8 19.6 7.4 19.2 8.8 19 9.6 18.9 10.4 18.8 11.2 18.9 11.8 18.9 12.1 19.3 12.6 19.6 14.7 21.1 16.9 23.4 15.3 26.1 15 26.7 15.6 25.5 15.3 26.1L15.3 26.1 15.3 26.1Z" fill="#FFF"/>
      <path d="M28 4L24 4 24 0 22 0 22 4 18 4 18 6 22 6 22 10 24 10 24 6 28 6 28 4" fill="#FFF"/>
    </symbol>
    <symbol id="url-icon" viewBox="0 0 13.416 13.044">
      <text transform="matrix(1 0 0 1 0 10.0439)" font-family="'MyriadPro-Regular'" fill="#fff" font-size="12">url</text>
    </symbol>
	<symbol id="pinterest-icon" viewBox="0 0 18 18">
      	<path fill="#FFFFFF" d="M0,8.988c0,3.688,2.216,6.854,5.389,8.246c-0.025-0.631-0.006-1.387,0.156-2.068 c0.172-0.73,1.156-4.904,1.156-4.904S6.412,9.688,6.412,8.838c0-1.332,0.773-2.33,1.736-2.33c0.814,0,1.213,0.613,1.213,1.352 c0,0.824-0.525,2.063-0.797,3.195c-0.228,0.953,0.479,1.73,1.422,1.73c1.703,0,2.853-2.189,2.853-4.787 c0-1.973-1.325-3.447-3.741-3.447c-2.729,0-4.434,2.037-4.434,4.313c0,0.783,0.229,1.346,0.596,1.77 c0.166,0.199,0.188,0.271,0.129,0.504c-0.043,0.166-0.145,0.564-0.186,0.723c-0.063,0.229-0.245,0.309-0.451,0.227 c-1.256-0.516-1.843-1.895-1.843-3.439c0-2.557,2.153-5.621,6.435-5.621c3.438,0,5.696,2.486,5.696,5.154 c0,3.531-1.963,6.17-4.854,6.17c-0.974,0-1.887-0.527-2.201-1.123c0,0-0.521,2.074-0.631,2.477 c-0.188,0.691-0.563,1.393-0.903,1.934c0.812,0.229,1.663,0.365,2.55,0.365c4.973,0,9.001-4.029,9.001-9C18.001,4.023,13.975,0,9,0 C4.029-0.014,0,4.02,0,8.988z"/>
    </symbol>
	<symbol id="telegram-icon" viewBox="0 0 20 16.5">
		<g>
			<path fill="#C8DAEA" d="M4.9,9.4l2.2,6.1c0,0,0.3,0.6,0.6,0.6c0.3,0,4.7-4.5,4.7-4.5l4.9-9.4L4.9,7.8L4.9,9.4z"/>
		</g>
		<g>
			<path fill="#A9C6D8" d="M7.8,11l-0.4,4.5c0,0-0.2,1.4,1.2,0s2.7-2.4,2.7-2.4"/>
		</g>
		<g>
			<g>
				<path fill="#FFFFFF" d="M4.9,9.6L0.4,8.1c0,0-0.5-0.2-0.4-0.7c0-0.1,0.1-0.2,0.3-0.3c1-0.7,18.5-7,18.5-7s0.5-0.2,0.8-0.1
					c0.1,0,0.2,0.1,0.3,0.3c0,0.1,0,0.2,0,0.4c0,0.1,0,0.2,0,0.4c-0.1,1.7-3.3,14.6-3.3,14.6s-0.2,0.8-0.9,0.8c-0.3,0-0.5,0-0.9-0.4
					c-1.3-1.2-6-4.3-7-5c-0.1,0-0.1-0.1-0.1-0.1c0-0.1,0.1-0.2,0.1-0.2s8.1-7.2,8.3-7.9c0-0.1,0-0.1-0.1-0.1C15.5,3.1,6.2,8.9,5.2,9.6
					C5.1,9.7,4.9,9.6,4.9,9.6z"/>
			</g>
		</g>
	</symbol>
  </defs>
</svg>
