<svg xmlns="http://www.w3.org/2000/svg" viewBox="0 0 111.85 81.76"><defs><style>.cls-1{fill:#18285f;}.cls-2{fill:#fff;}.cls-3{fill:#ed1c24;}</style></defs><g id="Слой_2" data-name="Слой 2"><g id="men"><path class="cls-1" d="M74.12,13.53c-3.84,2-7.78,4-8.82,4.68-.84,3.28,0,0-.87,3.36a.93.93,0,0,1-1.18.64s-2.59-.86-3.4-1.09a64.46,64.46,0,0,0-7.93,4.65,6.44,6.44,0,0,1-8.49-1.17,3.58,3.58,0,0,1-.79-1.55,9,9,0,0,1,.65-1.89s2-4.81,8.23-9.29a4.07,4.07,0,0,0,1.17,1.76h0c.82,2.49,2.14,4.61,3.34,4.7A5.78,5.78,0,0,0,58.51,18c.48.31,1,.64,1.69,1,3.07,1.64,3,.51,3.16-1.14a12.49,12.49,0,0,0-.49-5.26,1.59,1.59,0,0,0,.31-.64,7.24,7.24,0,0,0,.11-2.08l.13-.15a6.42,6.42,0,0,0,.15-1.39,1.07,1.07,0,0,1,.23-.68.56.56,0,0,0,.1-.28,5.82,5.82,0,0,0,0-1.24,42.41,42.41,0,0,1,12-1.94,3.39,3.39,0,0,1,.94,1.21A6.17,6.17,0,0,1,74.12,13.53Z"/><path class="cls-1" d="M62.34,11.28a1.76,1.76,0,0,0,.38-1.13c0,.07,0,.15,0,.22a3.22,3.22,0,0,1-.12,1.51A4.41,4.41,0,0,0,62.34,11.28Z"/><path class="cls-1" d="M98.57,57.25c2.78-.37,3.94-2.64,3.87-3.55h0c.08.62.74,2.27.83,3.28,0,.12,0,.23,0,.35a3.21,3.21,0,0,1-.29,1.1c-1.27,2.71-5.75,3.32-8.72,1.28a8.28,8.28,0,0,1-1-3.87C93.3,56.09,96.18,57.56,98.57,57.25Z"/><path class="cls-1" d="M83.77,63c2.52.35,5.88-1,6.08-4h0a3.35,3.35,0,0,0,.07.77,4.62,4.62,0,0,1-.66,2.29,5.49,5.49,0,0,1-4.51,2.25,10.58,10.58,0,0,1-1.54-.1h0c-1.55-.17-3-1.26-3.39-1.23h0a1.91,1.91,0,0,1,.93-.35A16.49,16.49,0,0,1,83.77,63Z"/><path class="cls-1" d="M.06,77.34c.16-1.14,1.21-2,3-1.65,3,.61,5,1.25,9.79,2.06,6.08,1,9.74-1.22,13.72-4.54,8.59-7.16,18-14.92,26.76-22.16a.79.79,0,0,0,.15.12,1,1,0,0,0,.58.18c1.24,0,1.36-.83,1.45-1.54,0-.2,0-.41.07-.61C66.37,40.3,76.06,32.36,82,27.55l1.14-.94,2.18-1.78a4.21,4.21,0,0,1,.39,2L61.5,46.67c-1.19-.27-2.72.88-3.66,1.66A4.59,4.59,0,0,0,56,51.16h0l-1.42,1.17L21,80a7.65,7.65,0,0,1-4.29,1.69c-3.24.31-10.06-.53-13.89-1.21C.26,80-.18,79,.06,77.34Z"/><path class="cls-2" d="M52.77,11a13.85,13.85,0,0,0,6.12-.84l.08,0a10.77,10.77,0,0,1,.5,2.31s0,.06.08.05a4.28,4.28,0,0,0,.67-.32A3.76,3.76,0,0,0,61,13.37c.3.28.57.39.88.13l.66-.6a2.85,2.85,0,0,0,.35-.35,12.49,12.49,0,0,1,.49,5.26c-.17,1.65-.09,2.78-3.16,1.14-.65-.36-1.21-.69-1.69-1a5.78,5.78,0,0,1-2.48.38c-1.2-.09-2.52-2.21-3.34-4.7a16.85,16.85,0,0,1-.55-2.2,4.71,4.71,0,0,1-.09-.52A6.75,6.75,0,0,0,52.77,11ZM55,12.67Z"/><path class="cls-2" d="M62.62,11.88a1.12,1.12,0,0,1-.2.3,4,4,0,0,1-.68.61.3.3,0,0,1-.42,0,2.55,2.55,0,0,1-.5-.85l.25-.15a.05.05,0,0,0,0,0,14.44,14.44,0,0,0-.16-2.66A.07.07,0,0,1,61,9c1-.67,1.24-.82,1.41-.51a4.1,4.1,0,0,1,.35,1.65,1.76,1.76,0,0,1-.38,1.13A4.41,4.41,0,0,1,62.62,11.88Z"/><path class="cls-2" d="M55,12.67h0Z"/><path class="cls-3" d="M94.28,59.72c3,2,7.45,1.43,8.72-1.28a3.21,3.21,0,0,0,.29-1.1c.06,1,0,2,.08,3,0,1.42.34,2.88.52,4.3.16,1.22,5.23,3.65,6.42,5.39a2.63,2.63,0,0,1,.14,3,0,0,0,0,0,0,.07c.62,1,1.37,1.76,1.4,2s-.34.42-.63.42A23.18,23.18,0,0,1,106.38,74c-1-.35-6.76-2.68-7.39-3.4a5.1,5.1,0,0,1-.63-1.2v0c-.16-.19-.31-.38-.46-.58-2.12-2.07-1-3.52-1.07-4.29a0,0,0,0,0,0,0A22.88,22.88,0,0,0,94.28,59.72Z"/><path class="cls-3" d="M89.26,62.06a4.62,4.62,0,0,0,.66-2.29s0,.07,0,.11c.3,1,2,1.95,2.86,3.38a2.44,2.44,0,0,1,0,3,.07.07,0,0,0,0,.1c.73.58.93.65.77,1-.82,1.62-7.06-.44-10.37-3.14a10.58,10.58,0,0,0,1.54.1A5.49,5.49,0,0,0,89.26,62.06Z"/><path class="cls-3" d="M42.91,39.81c-2.79-3-.87-8.47-.46-13.89.11-1.42,0-2.08.19-2.87a3.58,3.58,0,0,0,.79,1.55,6.44,6.44,0,0,0,8.49,1.17,64.46,64.46,0,0,1,7.93-4.65c.81.23,3.4,1.09,3.4,1.09a.93.93,0,0,0,1.18-.64c.87-3.36,0-.08.87-3.36,1-.7,5-2.71,8.82-4.68a6.17,6.17,0,0,0,2.74-8.17,3.39,3.39,0,0,0-.94-1.21,29.41,29.41,0,0,1,3.8.22A41.41,41.41,0,0,1,86.92,6c.41.13.73.42,1.12.58h0c3,.78,3.41,1.14,3.67,2,2.09,7,.41,8,.74,10.82a.06.06,0,0,0,.05.06c.52.14.73.28.66.69-.31,1.86-.37,3.61-.44,4.27A9.16,9.16,0,0,1,90.46,29a4.89,4.89,0,0,1-3.74,1,.07.07,0,0,0,0,.12c2.21,1.49,11.9,11.1,13.3,12.6.25.27-.22,1.1-.37,1.36s1.89,2.18,1.73,5.07c-.07,1.18.66,1,1.1,4.49h0c.07.91-1.09,3.18-3.87,3.55-2.39.31-5.27-1.16-5.24-1.4a8.08,8.08,0,0,0-1.84-2h-.06c-.22.09-.58.32-.88,0a61,61,0,0,0-4.4-4.41,35.84,35.84,0,0,0-4.29-3.32.06.06,0,0,0-.09.09,31.66,31.66,0,0,0,3,4,43.63,43.63,0,0,0,3.51,3.65.81.81,0,0,1,.13,1.1,0,0,0,0,0,0,.07,4.72,4.72,0,0,1,1.43,4h0c-.2,3-3.56,4.38-6.08,4a16.49,16.49,0,0,0-3.08-.42,1.91,1.91,0,0,0-.93.35h0c-.91.58-1.7,1.68-5.63-1.88-8.71-7.9-9.6-9.35-10.91-10.84-.13-.15-.34-.47-.34-.47l-.44.33c.13,1.88-.78,2.89-3.22,3.26-3.47.52-4.28-.61-4.45-.82v0h0s-.07-.12-.11-.18L56,51.16h0a4.59,4.59,0,0,1,1.81-2.83c.94-.78,2.47-1.93,3.66-1.66L85.66,26.78a4.21,4.21,0,0,0-.39-2l-2.18,1.78a12.48,12.48,0,0,1,.44-2.51,13.88,13.88,0,0,1,2.35-2.23,0,0,0,0,0,0-.06c-.12-1.21-.31-2.86.13-3.43a17.6,17.6,0,0,1-.74-3.18,5.8,5.8,0,0,0-2.23.62,36.74,36.74,0,0,1-5.58,1.28C77,18.76,78.57,21.86,79,23.28c.94,3-1.11,1.14,2.94,4.27C76.06,32.36,66.37,40.3,55.56,49.2c0,.2-.05.41-.07.61-.09.71-.21,1.54-1.45,1.54a1,1,0,0,1-.58-.18.79.79,0,0,1-.15-.12,4.11,4.11,0,0,1-.8-2.48c-.47-1.22-.94-2.44-1.28-3.68a.07.07,0,0,0,0,0c-.71-.25-1.68-.64-1.88-1.05a.89.89,0,0,1,0-.7.06.06,0,0,0,0-.08C45.47,41.1,44.34,41.32,42.91,39.81Z"/><path class="cls-3" d="M63.8,7.61a1.07,1.07,0,0,0-.23.68,6.42,6.42,0,0,1-.15,1.39l-.13.15a7.24,7.24,0,0,1-.11,2.08,1.59,1.59,0,0,1-.31.64,2.85,2.85,0,0,1-.35.35l-.66.6c-.31.26-.58.15-.88-.13a3.76,3.76,0,0,1-.76-1.11,4.28,4.28,0,0,1-.67.32s-.08,0-.08-.05a10.77,10.77,0,0,0-.5-2.31l-.08,0a13.85,13.85,0,0,1-6.12.84,7.2,7.2,0,0,1-.72-.12l0,.21.06.31a16.85,16.85,0,0,0,.55,2.2h0a4.07,4.07,0,0,1-1.17-1.76,6.13,6.13,0,0,1-.32-1.26,1.21,1.21,0,0,1-.73-.76,13.75,13.75,0,0,1-.27-3,.67.67,0,0,1,.28-.52,1.71,1.71,0,0,0,.62-.86c.5-1.17,1.75-4,4.31-5.06,1.85-.75,2.23-.34,3.35.35,1.48-.56,2.05-.38,3,.71a13.27,13.27,0,0,1,1.72,3.22,3.76,3.76,0,0,1,.4,1.41,5.82,5.82,0,0,1,0,1.24A.56.56,0,0,1,63.8,7.61Zm-1.06,2.76c0-.07,0-.15,0-.22a4.1,4.1,0,0,0-.35-1.65c-.17-.31-.44-.16-1.41.51a.07.07,0,0,0,0,.06,14.44,14.44,0,0,1,.16,2.66.05.05,0,0,1,0,0l-.25.15a2.55,2.55,0,0,0,.5.85.3.3,0,0,0,.42,0,4,4,0,0,0,.68-.61,1.12,1.12,0,0,0,.2-.3A3.22,3.22,0,0,0,62.74,10.37Z"/><path class="cls-2" d="M70.74,30.58H68.32L67,32.66a.71.71,0,0,1-.61.33.72.72,0,0,1-.7-.56l-.46-2.06L63,30.07a.71.71,0,0,1-.29-1.31l2.1-1.35-.16-2.23a.7.7,0,0,1,.19-.54.73.73,0,0,1,1-.08l1.76,1.32,2.24-1.08a.78.78,0,0,1,.31-.07.73.73,0,0,1,.6.33.74.74,0,0,1,0,.69l-1,2.1,1.48,1.51a.72.72,0,0,1,.15.78A.74.74,0,0,1,70.74,30.58Zm0-.77L69,28A.07.07,0,0,1,69,28l1.14-2.47a.07.07,0,0,0-.06-.1h0L67.5,26.62h-.07l-2-1.54h0a.07.07,0,0,0-.06.07l.18,2.57a0,0,0,0,1,0,.06l-2.4,1.54a.07.07,0,0,0,0,.12l2.66.35a.06.06,0,0,1,.06,0l.55,2.46a.06.06,0,0,0,.06.05l.06,0L67.94,30a.07.07,0,0,1,0,0h2.75A.06.06,0,0,0,70.78,29.81Z"/></g></g></svg>