<svg xmlns="http://www.w3.org/2000/svg" viewBox="0 0 83.26 82.6"><defs><style>.cls-1{fill:#18285f;}.cls-2{fill:#fff;}.cls-3{fill:#ed1c24;}</style></defs><g id="Слой_2" data-name="Слой 2"><g id="men"><path class="cls-1" d="M47,22.3a42.63,42.63,0,0,1,5.19-2.61s1.12,1.95,1.53,2.58a.82.82,0,0,0,1.36,0c1.09-1.88,2.19-3.7,3.23-5.43a4.33,4.33,0,0,1-1.73-.23,22.72,22.72,0,0,1-1.79,2.86c0,.08-.13.18-.23.16a.19.19,0,0,1-.14-.09,11.32,11.32,0,0,1-2.21-6.06,1.72,1.72,0,0,1-1.35-1.32,20,20,0,0,1-.74-3.82,36.88,36.88,0,0,0-10.74,6.56,33.59,33.59,0,0,0-4.25,4.46,2.67,2.67,0,0,0,.88,2.55C38.14,24,42,25.24,47,22.3Z"/><path class="cls-1" d="M71.41,9.07a3.72,3.72,0,0,0-1.14-2.62,67.71,67.71,0,0,0-8.12-.13c.06.24.12.49.18.71a1,1,0,0,1-.15.8c.1,2.79-.36,2.92-.94,3.18,0,.09,0,.19,0,.28a14.24,14.24,0,0,1-.53,4,.79.79,0,0,1,0,.09c1.42-.31,3.42-.49,5.56-.84C70.72,13.79,71.58,11.1,71.41,9.07Z"/><path class="cls-1" d="M61.24,11h0v0Z"/><path class="cls-1" d="M52.17,12.75l.08,0c0-.15,0-.31,0-.45a2,2,0,0,1-.83-.79h0C51.52,12.39,51.89,12.63,52.17,12.75Z"/><path class="cls-1" d="M52.43,54.24a20.81,20.81,0,0,1-.67,2.59,13.45,13.45,0,0,0-.19,1.42c.71,1.71,6.7,2.54,8.13.77.44-1.61.89-3.25,1.17-4.21,0-.1.08-.18.12-.27C58.83,56.06,54.3,55.64,52.43,54.24Z"/><path class="cls-1" d="M24.91,60.79c.94-1.32,1.81-2.71,2.62-3.91-2.73-1.11-5.43-3.4-6.07-6.29-.45.46-1.12,1.1-2.23,2.21a9.78,9.78,0,0,0-1.31,1.87C18.86,59.72,24,60.66,24.91,60.79Z"/><path class="cls-1" d="M75.9,29.26s0,0,0,0l-1.72,1.45L60.83,41.92,52.05,49.3c.22.3.2.63-.14,1a1.18,1.18,0,0,1-1.62.44l-.75.64c-9.78,8.21-19.4,16.28-24.83,20.82-4.84,4-6.66,5-10.94,4.6-.56-.06-1.16-.14-1.81-.25-1.59-.25-2.84-.48-3.93-.7-2-.41-3.41-.78-5.21-1.13s-2.64.5-2.77,1.56c-.21,1.56.21,2.51,2.59,2.91,1.43.23,3.3.49,5.23.7.8.08,1.6.16,2.39.22a32.63,32.63,0,0,0,5.34.08,7.17,7.17,0,0,0,4-1.61L50.85,52.39l2.06-1.73v0a1.77,1.77,0,0,1,.12-.82c.29-.68.81-1,3.53-3.1.5-.39.89-.36,1.17-.09l3.71-3.12L75.07,32.08l1.38-1.17C77.5,30,76.88,28.47,75.9,29.26Z"/><path class="cls-2" d="M61.26,8.75a10.3,10.3,0,0,1-5.82,1.41.75.75,0,0,0-.78.71,5,5,0,0,0,0,.81.23.23,0,0,1-.26.25c-.16,0-.35,0-.53-.08a3.93,3.93,0,0,1-.24,1.24.74.74,0,0,1-.81.47,4.44,4.44,0,0,1-.59-.11,11.32,11.32,0,0,0,2.21,6.06.19.19,0,0,0,.14.09c.1,0,.18-.08.23-.16a22.72,22.72,0,0,0,1.79-2.86,4.33,4.33,0,0,0,1.73.23,2.58,2.58,0,0,0,2.3-1.46.79.79,0,0,0,0-.09,14.24,14.24,0,0,0,.53-4l0-.36A17.15,17.15,0,0,0,61.26,8.75Z"/><path class="cls-2" d="M53.06,12.71a2.28,2.28,0,0,0,.14-1l-.44-.08a.27.27,0,0,1-.21-.21l-.25-1.39a.63.63,0,0,0-.45-.46c-.21-.09-.5-.23-.72-.35a.06.06,0,0,0-.09,0,6.81,6.81,0,0,0,.05,1.1s0,.07,0,.11a3.7,3.7,0,0,0,.32,1,2,2,0,0,0,.83.79c0,.14,0,.3,0,.45C52.57,12.91,52.91,13,53.06,12.71Z"/><path class="cls-3" d="M63.59,73.73c-1.29-1-5.2-4.24-5.47-5.83-.21-1.31-.47-.65.58-5,.22-.9.6-2.37,1-3.86-1.43,1.77-7.42.94-8.13-.77-.24,2.86.27,6,.26,8.78,0,2.15-1.08,3.4-.74,5.42a1.3,1.3,0,0,0,.69,1c-.52.69-.94,1.23-1.23,1.68a1,1,0,0,0-.12.77.93.93,0,0,0,.5.6A44.64,44.64,0,0,0,63.2,80.12a.59.59,0,0,0,.47-.25.64.64,0,0,0,.13-.5c-.08-.57-.27-1.32-.44-2,.83.06,1.15-.06,1.75-1.58C65.46,74.85,64.23,74.21,63.59,73.73Zm-3,3.94a.32.32,0,0,1-.32.12,17.35,17.35,0,0,1-6.09-2.13,10.05,10.05,0,0,1,.93-1.27,5.44,5.44,0,0,1,.65.3,23.65,23.65,0,0,0,4.66,2.07c.08.19.16.38.23.57A.35.35,0,0,1,60.56,77.67Z"/><path class="cls-3" d="M51.71,52.51c.28.73.49.72.6,1a1.51,1.51,0,0,1,.12.77c1.87,1.4,6.4,1.82,8.56.3.95-2.08,1.53-3.18,1.21-4.46a6.86,6.86,0,0,0,.93-1.46,32.05,32.05,0,0,0-1.69-5.12l-3.71,3.12c-.28-.27-.67-.3-1.17.09-2.72,2.12-3.24,2.42-3.53,3.1a1.77,1.77,0,0,0-.12.82v0l-2.06,1.73A1.2,1.2,0,0,0,51.71,52.51Z"/><path class="cls-3" d="M17.92,54.67a75.39,75.39,0,0,0-5.41,13.1,8.46,8.46,0,0,0-2.43,2.92A35.93,35.93,0,0,0,8,75.88c1.09.22,2.34.45,3.93.7.65.11,1.25.19,1.81.25a53.85,53.85,0,0,1,2.92-6.35c1-1.78,5-5.63,6.77-7.78.5-.6,1-1.25,1.45-1.91C24,60.66,18.86,59.72,17.92,54.67Z"/><path class="cls-3" d="M82.55,24.53a17.13,17.13,0,0,0-1.7-3c-.44-.73-.07-2.11-.55-2.8a.53.53,0,0,0-.45-.24C78.44,12.37,75.78,7.81,73.59,7a14.45,14.45,0,0,0-3.32-.57,3.72,3.72,0,0,1,1.14,2.62c.17,2-.69,4.72-5.2,5.44-2.14.35-4.14.53-5.56.84a2.58,2.58,0,0,1-2.3,1.46c-1,1.73-2.14,3.55-3.23,5.43a.82.82,0,0,1-1.36,0c-.41-.63-1.53-2.58-1.53-2.58A42.63,42.63,0,0,0,47,22.3c-5.06,2.94-8.9,1.7-11-.42a2.67,2.67,0,0,1-.88-2.55C32.26,23,29.78,27.46,30.5,30.52a88.23,88.23,0,0,0-8.2,16.24,3.76,3.76,0,0,0,.46,2,6,6,0,0,1-1.3,1.85c.64,2.89,3.34,5.18,6.07,6.29.25-.36.49-.71.72-1,.59-.79,1.43-1.37,2.05-2.14a2.71,2.71,0,0,0,2.2-.8,73.3,73.3,0,0,0,7.4-8.41,23.88,23.88,0,0,0,3,1.43c-.11.81-.25.71,1.22,1.36.58.64,1.48,2.43,3,3A14.14,14.14,0,0,1,49,51a5.05,5.05,0,0,1,.54.42l.75-.64a1.18,1.18,0,0,0,1.62-.44c.34-.4.36-.73.14-1l8.78-7.38c-1.37-3.51-2.87-7.18-3.07-7.8s.53-1.22.87-1.56C61.17,30,61.82,21.15,70,18.13c1.2-.45,1.61.42,3.38,2.89-.36.49-.2,1.05.65,2.26.75,1.06-.18,2.21-.12,3.45a8.33,8.33,0,0,0,.53,2.69h0a1.18,1.18,0,0,0-.26,1.32l1.72-1.45s0,0,0,0c1-.79,1.6.74.55,1.65l-1.38,1.17c.7.68,3,.25,4.64-.7h0a2.69,2.69,0,0,0,.29-.16C84,28.58,83.57,26.92,82.55,24.53Z"/><path class="cls-3" d="M8,82.45l.56.15c.55-.8,1.14-1.64,1.72-2.46-.79-.06-1.59-.14-2.39-.22A3.85,3.85,0,0,0,8,82.45Z"/><path class="cls-3" d="M50.16,8.31a20,20,0,0,0,.74,3.82,1.72,1.72,0,0,0,1.35,1.32,4.44,4.44,0,0,0,.59.11.74.74,0,0,0,.81-.47,3.93,3.93,0,0,0,.24-1.24c.18,0,.37.06.53.08a.23.23,0,0,0,.26-.25,5,5,0,0,1,0-.81.75.75,0,0,1,.78-.71,10.3,10.3,0,0,0,5.82-1.41,17.15,17.15,0,0,1,0,2.18V11c.58-.26,1-.39.94-3.18a1,1,0,0,0,.15-.8c-.06-.22-.12-.47-.18-.71-.23-.87-.48-1.8-.57-2.1a.54.54,0,0,0-.1-.2,3.17,3.17,0,0,0-1.26-1A8.66,8.66,0,0,0,56.29.12c-.75-.18-.82-.29-1.61.67a4.6,4.6,0,0,0-2.25.93A2,2,0,0,0,51,1.79a4.2,4.2,0,0,0-.69,2.8,1.61,1.61,0,0,1-.17.85.73.73,0,0,0-.1.39c0,.61.09,2,.12,2.32C50.15,8.2,50.15,8.26,50.16,8.31Zm2.9,4.4c-.15.27-.49.2-.81.07l-.08,0c-.28-.12-.65-.36-.74-1.21h0a3.7,3.7,0,0,1-.32-1s0-.07,0-.11A6.81,6.81,0,0,1,51,9.29a.06.06,0,0,1,.09,0c.22.12.51.26.72.35a.63.63,0,0,1,.45.46l.25,1.39a.27.27,0,0,0,.21.21l.44.08A2.28,2.28,0,0,1,53.06,12.71Z"/><path class="cls-2" d="M51,29.13,50.28,31a.7.7,0,0,0,.07.66.73.73,0,0,0,.59.32.66.66,0,0,0,.43-.15L53,30.55l1.25.68a.73.73,0,0,0,.35.09.68.68,0,0,0,.52-.23.67.67,0,0,0,.19-.54l-.13-1.84,1.66-1.53a.72.72,0,0,0-.49-1.25h-.07l-1.5.15-.31-1.38a.72.72,0,0,0-.69-.56.71.71,0,0,0-.64.4l-1,2L50.22,27a.71.71,0,0,0-.29,1.24Zm-.6-1.49,2.17-.53,0,0,1.14-2.23a.07.07,0,0,1,.12,0l.42,1.88a.06.06,0,0,0,.06.05h0l2-.2h0a.07.07,0,0,1,0,.11l-1.87,1.73a.08.08,0,0,0,0,.05l.15,2.12a.06.06,0,0,1-.06.07h0L53,29.79h0l0,0L51,31.26h0s-.08,0-.06-.08L51.74,29a.08.08,0,0,0,0-.08l-1.37-1.15A.06.06,0,0,1,50.38,27.64Z"/></g></g></svg>