<svg xmlns="http://www.w3.org/2000/svg" viewBox="0 0 86.71 96.01"><defs><style>.cls-1{fill:#18285f;}.cls-2{fill:#fff;}.cls-3{fill:#ed1c24;}</style></defs><g id="Слой_2" data-name="Слой 2"><g id="men"><path class="cls-1" d="M37.86,14.76c-1.2-.44-4.54-1.44-7.47-2.22-2.46-.67-5.35-2.1-5.1-5a2.57,2.57,0,0,1,.63-1.46,47.72,47.72,0,0,1,7.45.2,24.11,24.11,0,0,1,7,1.92c0,.06,0,.12-.07.19-.28.85-.39,1.63.3,2.07h0c-1.07,3.57-1.08,9-.19,9s2.73-1.61,3.85-2.94a2.3,2.3,0,0,0,2-.31,13,13,0,0,0,2.38-2.71,22.31,22.31,0,0,1,4.6,5.57,21.2,21.2,0,0,1,2.36,9.47c-.48.88-1.46,1-2.54.86a5.29,5.29,0,0,1-4.33-3.79c-.92-3.27-1.66-5.29-3.63-6.72,0,0-1,.68-5.1,2.95a.77.77,0,0,1-1.13-.52A37.3,37.3,0,0,1,37.86,14.76Z"/><path class="cls-1" d="M13.33,57.55c1.21,2.77,5.87,4.46,8.31,3.69,0,.06-.56,1.45-1.36,3.33-2.51.13-6.6-.4-8.32-3.41C12.54,59.54,13,58.43,13.33,57.55Z"/><path class="cls-1" d="M57.37,66.27c-.85-.85-1.76-1.73-2.72-2.65,2.28.14,6.44-2.47,6.53-5.53l0,0c1,.89,1.88,1.76,2.69,2.58C63.69,63.6,60.51,66.1,57.37,66.27Z"/><path class="cls-1" d="M43.7,59.5C51.43,69.35,59,79,63.49,84.68S69.32,91.24,75,91.53c4.54.23,6.47,0,9.29.08,1.68,0,2.46,1,2.38,2.09-.12,1.56-.72,2.4-3.12,2.3-3.61-.15-10-.74-12.84-1.67A7.06,7.06,0,0,1,67.19,92L42.45,60.47l-3.3-4.19c.42-.41.9-.93,1.31-.91Z"/><path class="cls-1" d="M22,31.77l1.38,1.76L24.51,35,34,47.18l3.84,4.89c-.25.59-.47,1.18-.67,1.72l-4.34-5.53L23.61,36.5l-1.42-1.8L20.86,33A1.06,1.06,0,0,1,22,31.77Z"/><path class="cls-2" d="M41.68,8.71s0,0,0,.08a.28.28,0,0,0,.07.21l.32.3a3.74,3.74,0,0,1-.51.59.49.49,0,0,1-.73-.14c-.2-.26-.1-.78.1-1.33a17.07,17.07,0,0,1,.95-1.95h0l.23.36a.62.62,0,0,1,.12.62Z"/><path class="cls-2" d="M40.59,10.44a1.05,1.05,0,0,0,1,.23,3.06,3.06,0,0,0,1-.87l.35.31a.23.23,0,0,0,.35-.07,2.43,2.43,0,0,1,.17-.3,3.45,3.45,0,0,1,.25-.37.73.73,0,0,1,1-.16,9.91,9.91,0,0,0,5.5,2,9.71,9.71,0,0,1-.89,1.37l0,.06-.21.27L49,13h0l-.17.22-.18.25a13,13,0,0,1-2.38,2.71,2.3,2.3,0,0,1-2,.31c-1.12,1.33-2.9,2.89-3.85,2.94S39.52,14,40.59,10.44Z"/><path class="cls-3" d="M0,84.34c.25-.91.48-1.79.72-2.69-.43-.11-.71-.19-.73-.94-.07-3.09,2.86-3,6.45-6.17,2.07-1.83,4.22-9.81,5.49-13.38,1.72,3,5.81,3.54,8.32,3.41-1.41,3.31-3.69,8.12-5.62,9.71a2,2,0,0,0-.57,1.07c-.39,2.76-.36,2.1-1.06,2.64-.07,1.63-.4,2.93-1.16,3.3A55.69,55.69,0,0,1,1.46,84.91C1.06,85-.21,85.25,0,84.34ZM2.37,83.1A50.69,50.69,0,0,0,10,80.53c.31-.15.63-.28.75-.71,0,.07.29-1.06.3-1.08-1.28.37-2,.85-4,1.53L2.44,81.79l-.25,1.1A.15.15,0,0,0,2.37,83.1Z"/><path class="cls-3" d="M63.9,60.7a36.26,36.26,0,0,1,8.47,12.77c3.15,6.91,4.79,9.13.8,9.36a10.26,10.26,0,0,0-.24,2.73.74.74,0,0,1-1.48,0,26.91,26.91,0,0,0-.14-2.76,4,4,0,0,1-3-1c-.92-1.25-1.14-3.84-1.37-5.71-1.88-1.87-4.89-5.26-9.56-9.86C60.51,66.1,63.69,63.6,63.9,60.7Z"/><path class="cls-3" d="M13.33,57.55a34.29,34.29,0,0,1,1.94-3.82,2,2,0,0,1-.12-1.79c6-11.07,5.4-10.45,8.46-15.44l9.25,11.76c-3.58,3.57-7.62,9.65-8.59,10.09a5.39,5.39,0,0,1-1.56.45c-.18.41-.59,1.5-1.07,2.44C19.2,62,14.54,60.32,13.33,57.55Z"/><path class="cls-3" d="M24.51,35a6.6,6.6,0,0,0,1.15-4.42c-.68-8.21,1.6-8.13.26-12.25-.16-.5-.39-1.27-1-1a4.61,4.61,0,0,1-1.79.43c-2.71,0-1.31.08-1.57,4.09.65.06,1.31.19,1.34,1.11.14,5,1.82,8.15.47,10.53L22,31.77A1.06,1.06,0,0,0,20.86,33l1.33,1.7a4.25,4.25,0,0,1-2.64.57c-2.2-.27-3.71-1.38-4-2.75s.19-2.22-.27-4.08c-.93-3.71-1.4-5-1.21-5.56a1.86,1.86,0,0,1,.49-.59c-.72-3-1.13-9.83-.16-11.61.4-.72,2.8-2.51,5.47-3.54a21,21,0,0,1,6.07-1.08,2.57,2.57,0,0,0-.63,1.46c-.25,2.92,2.64,4.35,5.1,5,2.93.78,6.27,1.78,7.47,2.22a37.3,37.3,0,0,0,1,6.54.77.77,0,0,0,1.13.52c4.13-2.27,5.1-2.95,5.1-2.95,2,1.43,2.71,3.45,3.63,6.72a5.29,5.29,0,0,0,4.33,3.79c1.08.15,2.06,0,2.54-.86.2,5.21-1.06,10-2.41,11.49,0,0,4.93,10,6.4,14.14a2.36,2.36,0,0,1-.16,2,9,9,0,0,0,1.74,1.9c-.09,3.06-4.25,5.67-6.53,5.53-.87-.83-1.78-1.68-2.75-2.57a1.27,1.27,0,0,1-1.7-.17c-1.42-1.43-3.12-3.66-4.51-5.33a9.34,9.34,0,0,1-2,4l-3.24-4.13c-.41,0-.89.5-1.31.91l3.3,4.19a4.76,4.76,0,0,1-2.94.45,1.94,1.94,0,0,1-1.67-2.06,11.61,11.61,0,0,1,.31-2,2.37,2.37,0,0,1-1.54-.27.39.39,0,0,1-.2-.45c.12-.41.4-1.31.79-2.37.2-.54.42-1.13.67-1.72q.26-.63.54-1.23c.4-.84.81-1.67,1.22-2.5q-.8-.92-1.29-1.41c-1-1-2.13-1.48-3.94-.06l-.37.31L24.51,35Z"/><path class="cls-3" d="M52,10.44a.66.66,0,0,1-.61.48,9.7,9.7,0,0,1-1.22,1.84A1,1,0,0,1,49,13h0l.09-.13.21-.27,0-.06a9.71,9.71,0,0,0,.89-1.37,9.91,9.91,0,0,1-5.5-2,.73.73,0,0,0-1,.16,3.45,3.45,0,0,0-.25.37,2.43,2.43,0,0,0-.17.3.23.23,0,0,1-.35.07l-.35-.31a3.06,3.06,0,0,1-1,.87,1.05,1.05,0,0,1-1-.23h0c-.69-.44-.58-1.22-.3-2.07,0-.07.05-.13.07-.19.14-.38.26-.65.33-.87a.89.89,0,0,1-.06-.74,18.78,18.78,0,0,1,.85-1.84c.19-.36.8-1.46,1.29-2.17A.62.62,0,0,1,43,2.42a1.59,1.59,0,0,0,.55-.51C44.5.51,45.17,0,45.57,0a1.92,1.92,0,0,1,1.22.72,5.25,5.25,0,0,1,2.33.44c1.16-.35,1.25-.19,1.67.32A8.93,8.93,0,0,1,52.42,6a3.39,3.39,0,0,1,.5,1.29,1.06,1.06,0,0,1-.05.5S52.22,9.78,52,10.44ZM42.1,6.82l-.23-.36h0a17.07,17.07,0,0,0-.95,2c-.2.55-.3,1.07-.1,1.33a.49.49,0,0,0,.73.14,3.74,3.74,0,0,0,.51-.59L41.74,9a.26.26,0,0,1-.06-.29l.54-1.27A.62.62,0,0,0,42.1,6.82Z"/><path class="cls-2" d="M40.73,30.31l-2.49.7-.45,2.57a.72.72,0,0,1-.71.59.7.7,0,0,1-.59-.32l-1.44-2.16L32.5,32h-.09a.71.71,0,0,1-.57-1.15l1.6-2.05L32.3,26.47a.71.71,0,0,1,0-.69.72.72,0,0,1,.61-.34.74.74,0,0,1,.25,0l2.42.91,1.85-1.8a.72.72,0,0,1,.5-.2h0a.74.74,0,0,1,.52.22.77.77,0,0,1,.2.52l-.1,2.61L40.87,29a.72.72,0,0,1-.14,1.32Zm-.17-.74L38,28.15a.06.06,0,0,1,0-.06l.12-3s0-.06-.07-.06a0,0,0,0,0,0,0l-2.12,2.05s0,0-.05,0h0L33,26.1h0a.06.06,0,0,0-.06.09l1.29,2.7s0,.05,0,.07l-1.83,2.33a.06.06,0,0,0,.06.1h0L35.32,31h0a.06.06,0,0,1,.06,0L37,33.49a.05.05,0,0,0,0,0,.08.08,0,0,0,.07-.05l.51-2.93a0,0,0,0,1,0-.05l2.85-.8A.06.06,0,0,0,40.56,29.57Z"/></g></g></svg>