<svg xmlns="http://www.w3.org/2000/svg" viewBox="0 0 138.18 79.51"><defs><style>.cls-1{fill:#fff;}.cls-2{fill:#18285f;}.cls-3{fill:#ed1c24;}</style></defs><g id="Слой_2" data-name="Слой 2"><g id="men"><path class="cls-1" d="M70.6,10l-.73,0h-.13a1,1,0,0,1-.53-.16,3.8,3.8,0,0,1-1.19-1h0c.12,0,.17-.14.22-.37l.15-.74.2-1a.31.31,0,0,1,.29-.27l1.76-.07a.2.2,0,0,1,.2.18l.19,1.57a.33.33,0,0,0,.32.3h.22a4.56,4.56,0,0,1-.39,1.08A.72.72,0,0,1,70.6,10Z"/><path class="cls-1" d="M66.9,8.78a.17.17,0,0,0,.13.07h.16a7.83,7.83,0,0,0,1.55,1.44,1.53,1.53,0,0,0,.91.36l.69,0h.44a1.09,1.09,0,0,0,1-.69,6.33,6.33,0,0,0,.45-1.41h.43a.17.17,0,0,0,.18-.17l0-1.14a.82.82,0,0,1,.09-.35.76.76,0,0,1,.7-.43h.11c1,0,2.51,0,3.4,0a2.21,2.21,0,0,1,0,.25c.07.41.13.77.13.84,0,.37-.41.28-.26,1s.33,1.14.63,2.09a1.61,1.61,0,0,1-.69.23c0,.57-.19,2.44-.24,2.64-.09.41-2.44.6-4,0l-.2.27c-.32.38-.71.73-.9,1A9.57,9.57,0,0,0,70.3,18a25.43,25.43,0,0,0-4.24-8.78A2.63,2.63,0,0,0,66.9,8.78Z"/><path class="cls-2" d="M70.42,34.78a6.73,6.73,0,0,1,.35-1.24l0-.11,2.82,2.5,3.57,3.17a1.83,1.83,0,0,1-.76-.15c-.74-.43-1.85-1.46-2.47-1.51a1.55,1.55,0,0,0-.58.14l-.1,0-2.17-2.15Z"/><path class="cls-2" d="M81,43.35c.11-.08.56-.37,1.3.26,10.08,9,23,20.45,30.84,27.35,5.45,4.82,7.07,5.55,12.89,4.8,4.61-.61,6.52-1.14,9.38-1.62,1.7-.29,2.67.58,2.78,1.67.16,1.6-.29,2.55-2.73,2.89-3.66.51-10.18,1.08-13.25.67a7.28,7.28,0,0,1-4-1.76L84.07,47.4l-3-2.69h0C80.37,44.12,80.61,43.62,81,43.35Z"/><path class="cls-2" d="M61.34,8.68a7.38,7.38,0,0,1,1.5-.55,10.32,10.32,0,0,1,3.9.22c0,.12.08.24.11.35s0,.06.05.08a2.63,2.63,0,0,1-.84.41A25.43,25.43,0,0,1,70.3,18a9.57,9.57,0,0,1,1.41-3.28c.19-.23.58-.58.9-1a17.75,17.75,0,0,1,1.57,3.7,3.89,3.89,0,0,0-2.24-.6c-.46,1.23-.81,2.53-1.29,3.8-.32.84-.83.56-1-.05a16.26,16.26,0,0,0-.86-2.85c-.9.38-2.46,1.87-4.88,7.71a6.38,6.38,0,0,1-7.77,3.65l-.14,0a5.34,5.34,0,0,1-3.67-6.11C53.35,17.79,56.65,11.07,61.34,8.68ZM56.09,21.14l1.15,1.41-.78,1.65a.34.34,0,0,0,.06.36.32.32,0,0,0,.24.11.27.27,0,0,0,.12,0l1.7-.66L59.9,25.2a.31.31,0,0,0,.22.09.32.32,0,0,0,.14,0,.34.34,0,0,0,.19-.31l-.1-1.82,1.61-.9a.32.32,0,0,0,.16-.33.31.31,0,0,0-.24-.27l-1.76-.45-.34-1.78a.32.32,0,0,0-.26-.26h-.06a.33.33,0,0,0-.27.15l-1,1.54-1.81-.21h0a.34.34,0,0,0-.28.17A.32.32,0,0,0,56.09,21.14Z"/><path class="cls-2" d="M63.94,49.62c.92.34,5.13,2.89,9,1h0a20.6,20.6,0,0,1-1.72,3.94h0c-2.59.53-6.35,0-8.43-2.06l0,0A22.94,22.94,0,0,0,63.94,49.62Z"/><path class="cls-2" d="M19.82,57.64A8.23,8.23,0,0,1,22,57a7,7,0,0,1,1.11-.12,7.78,7.78,0,0,1,1.09.07c-1.64,1.85-.39,7.54,1.63,8.7l-.61.24c-.5.18-1.06.36-1.71.56l-.57.18L21.62,67A11.13,11.13,0,0,1,19.82,57.64Z"/><path class="cls-3" d="M1.75,65.68a7.14,7.14,0,0,1,2.46,0c.19-.69.21-1,.93-1,.91-.09,1.8.08,2.71,0,4.09-.81,8.36-5.45,12-7A11.13,11.13,0,0,0,21.62,67c-3.27,1.2-9,2.11-9.92,2.5-4.91,2-5,6.85-6.62,7.79-1.06.61-1.51.24-1.84-1-.27.19-1.76,1.87-2.17,1.89C-.83,78.52.06,67,1.75,65.68Zm-.12,9.61c.16.33.38.1.6-.09s.51-.51.71-.71a.54.54,0,0,0,.19-.31c.25-3.1.67-5.58.76-6.18a.09.09,0,0,0-.09-.11c-.4,0-1.32-.11-1.49.51C1.8,70.33,1.25,74.55,1.63,75.29Z"/><path class="cls-3" d="M56.06,20.78a.34.34,0,0,1,.28-.17h0l1.81.21,1-1.54a.33.33,0,0,1,.27-.15h.06a.32.32,0,0,1,.26.26l.34,1.78,1.76.45a.31.31,0,0,1,.24.27.32.32,0,0,1-.16.33l-1.61.9.1,1.82a.34.34,0,0,1-.19.31.32.32,0,0,1-.14,0,.31.31,0,0,1-.22-.09L58.58,24l-1.7.66a.27.27,0,0,1-.12,0,.32.32,0,0,1-.24-.11.34.34,0,0,1-.06-.36l.78-1.65-1.15-1.41A.32.32,0,0,1,56.06,20.78Z"/><path class="cls-3" d="M26.63,56c3.74-4.8,4.09-10.23,5.23-15.94.76-3.79,1.71-8.25,3.58-12-.11-.53-.45-1.46-.69-2.85C43,21,43.64,17.85,50.9,13.18c3.05-2,7.67-4.53,11.94-5a7.38,7.38,0,0,0-1.5.55c-4.69,2.39-8,9.11-9,14.26A5.34,5.34,0,0,0,56,29.05l.14,0a6.38,6.38,0,0,0,7.77-3.65c2.42-5.84,4-7.33,4.88-7.71a16.26,16.26,0,0,1,.86,2.85c.14.61.65.89,1,.05.48-1.27.83-2.57,1.29-3.8a3.89,3.89,0,0,1,2.24.6A14.68,14.68,0,0,1,74.7,20c.35,3.12-3.16,5.92-4.58,6.78h0a5.67,5.67,0,0,1,1.95.53,3.4,3.4,0,0,1,1.2.86,1,1,0,0,1,.24.41,1,1,0,0,1,0,.39c-.16.65-.3,1.29-.42,1.93a12.61,12.61,0,0,1,.57,5.06l-2.82-2.5,0,.11a6.73,6.73,0,0,0-.35,1.24l.69.69,2.17,2.15.1,0a1.55,1.55,0,0,1,.58-.14c.62.05,1.73,1.08,2.47,1.51a1.83,1.83,0,0,0,.76.15,4.85,4.85,0,0,1,2.49.81c.19.12,1.42.85,2.62,1.63,2.21,1.44,1.48,3.05,1.17,3.13l-1.15-1-.06,0c-.74-.63-1.19-.34-1.3-.26-.35.27-.59.77.06,1.35h0l3,2.69a2.32,2.32,0,0,1-1.11.7,12.11,12.11,0,0,1-1.46.4,6.87,6.87,0,0,1-1,.09c-2.4.29-3.76-.16-6.69-2.41.2,1.14-.52,3.39-.89,4.47-3.89,1.86-8.1-.69-9-1,.18-.74.14-1.39-.4-1.7a33.79,33.79,0,0,0-3.4-1.71,7.72,7.72,0,0,1-2.21,1.38c-1.41-.57-6.73-3.93-9.79-4.19a141.88,141.88,0,0,1-7.92,14.29,8.46,8.46,0,0,1-3.53,1,13.44,13.44,0,0,1-5.43,5.89c-1.77.87-2,.1-5.47,1h0c-2-1.16-3.27-6.85-1.63-8.7C25.57,56.91,25.7,57.2,26.63,56Z"/><path class="cls-3" d="M77.19,6.69a2.21,2.21,0,0,0,0-.25c-.89,0-2.36,0-3.4,0h-.11a.76.76,0,0,0-.7.43.82.82,0,0,0-.09.35l0,1.14a.17.17,0,0,1-.18.17h-.43a6.33,6.33,0,0,1-.45,1.41,1.09,1.09,0,0,1-1,.69h-.44l-.69,0a1.53,1.53,0,0,1-.91-.36,7.83,7.83,0,0,1-1.55-1.44H67a.17.17,0,0,1-.13-.07s-.05,0-.05-.08-.07-.23-.11-.35a12.68,12.68,0,0,0-1-2.23c-.25-.4.66-3.09,1.87-4.79,1-1.44,3.75-1.65,6.05-.92a4.72,4.72,0,0,1,1.64.14c.62.25,1.82,2.22,2.2,2.75a.86.86,0,0,0,.31.26l.13.06a.5.5,0,0,1,.28.4,9.75,9.75,0,0,1-.27,2.41C77.86,6.61,77.63,6.63,77.19,6.69ZM71.37,8.48a.33.33,0,0,1-.32-.3l-.19-1.57a.2.2,0,0,0-.2-.18L68.9,6.5a.31.31,0,0,0-.29.27l-.2,1-.15.74c-.05.23-.1.33-.22.37h0a3.8,3.8,0,0,0,1.19,1,1,1,0,0,0,.53.16h.13l.73,0a.72.72,0,0,0,.6-.43,4.56,4.56,0,0,0,.39-1.08Z"/><path class="cls-3" d="M60.23,64.47A2.48,2.48,0,0,0,60.46,63c-.45-1,1-7.2,2.33-10.46,2.08,2.08,5.84,2.59,8.43,2.06-1.4,2.83-4,7.68-4.28,9.09a1.53,1.53,0,0,0,.36,1.12c1.38,1.77,4.7,2,6.48,2.86s2.11,3.28-.6,3.27a8.18,8.18,0,0,1,1.56,2.62c.13,1.15-15.42.69-15.49-.63a12.2,12.2,0,0,1,.64-3.13C58.56,68.77,59.62,66.43,60.23,64.47Zm2.06,7.81c1.34.21,9.9,1,9.11-.19-.18-.26-.33-.53-.51-.8a.53.53,0,0,0-.41-.2c-1-.08-4.38-.34-5.51-.41-1.32-.08-2.31-.2-2.7-.16a.37.37,0,0,0-.32.28s-.14.57-.19.75C61.62,72.06,61.94,72.23,62.29,72.28Z"/></g></g></svg>