<svg xmlns="http://www.w3.org/2000/svg" viewBox="0 0 123.28 87.1"><defs><style>.cls-1{fill:#18285f;}.cls-2{fill:#fff;}.cls-3{fill:#ed1c24;}</style></defs><g id="Слой_2" data-name="Слой 2"><g id="men"><path class="cls-1" d="M107.92,11.2v0h0Z"/><polygon class="cls-1" points="99.37 11.7 99.37 11.7 99.37 11.7 99.37 11.7"/><path class="cls-1" d="M119.81,15.65c-1.1-2-5.79-3.56-11.43-4.42-.09.68-.23,1.1-.58,1.06l-.06,0h0a4.43,4.43,0,0,1-2.28,3.2,1.44,1.44,0,0,0-.49.43,8.05,8.05,0,0,1-1.09,1.28c-.74.71-1.3.85-2,0a16.21,16.21,0,0,1-1.81-2.12,6.48,6.48,0,0,1-.26-2.35h0s-.32,0-.42-.11-.11-.06-.26-1.13l.13.12a1,1,0,0,1-.33-.44,4.73,4.73,0,0,1-.25-.66c-4.38,0-8.48.55-11.23,1.71a9.68,9.68,0,0,0-1.88,1.08,1.82,1.82,0,0,0-.36,1.83c.11.28,1,3.92,4.2,3.35a64.94,64.94,0,0,1,11-.68l1.87,2.26a.51.51,0,0,0,.78,0L104.82,18c3.32-.27,8.12.92,11.24,1.85,1.08.32,3,.17,3.91-2.55A2.07,2.07,0,0,0,119.81,15.65Z"/><path class="cls-1" d="M65.59,55.06q-1.78,1.83-3.36,3.62a9.08,9.08,0,0,0,6.46,6.71c2.92-2.56,2.89-3,3.71-3.6A9.24,9.24,0,0,1,65.59,55.06Z"/><path class="cls-1" d="M89.35,59.41c-.94,1.15-2.28,2.37-2.43,2.72C86,64.27,90.79,69,94,67.88h0c.5-.17,3.49-4.47,3.49-4.47C93.35,65.4,89.58,60.68,89.35,59.41Z"/><path class="cls-1" d="M108.37,37.11,94.83,39.29v0c.47.53.94,1,1.39,1.59l13.14-2.11-.23-1.15A.67.67,0,0,0,108.37,37.11Z"/><path class="cls-1" d="M86.7,41.29c-.15-.2-.32-.41-.46-.62L74.08,42.62,26.74,50.23c-5.61.91-9.78,1-14.7-3.13-3.91-3.27-5.36-4.88-7.71-7-1.4-1.26-2.81-1-3.55-.09-1.09,1.38-1.23,2.52.82,4.27,3.09,2.62,8.77,7,11.85,8.39a8,8,0,0,0,4.73.74l54.3-8.71,14.94-2.39C87.19,42,87,41.62,86.7,41.29Z"/><path class="cls-2" d="M98.59,10.27c0,.09,0,.17.07.26a4.73,4.73,0,0,0,.25.66,1,1,0,0,0,.33.44l.13.07h0V10.36A1.4,1.4,0,0,1,98.59,10.27Z"/><path class="cls-2" d="M108.05,8a.56.56,0,0,0-.29-.46,8.47,8.47,0,0,0-2.91-.36,12.83,12.83,0,0,0-4.44.67.66.66,0,0,0-.38.52,13.14,13.14,0,0,0,0,1.46.2.2,0,0,1,0,.07v2.62a.21.21,0,0,1-.19.21,6.48,6.48,0,0,0,.26,2.35,16.21,16.21,0,0,0,1.81,2.12c.7.8,1.26.66,2,0A8.05,8.05,0,0,0,105,15.89a1.44,1.44,0,0,1,.49-.43,4.43,4.43,0,0,0,2.28-3.2,9,9,0,0,0,.18-1.06v0h0c0-.36.07-.74.09-1.13,0-.07,0-.16,0-.26h0C108.05,9.2,108.05,8.62,108.05,8Z"/><path class="cls-3" d="M107.93,11.15c0-.36.07-.74.09-1.13C108,10.41,108,10.79,107.93,11.15Z"/><path class="cls-3" d="M107.74,12.26a9,9,0,0,0,.18-1.06A9,9,0,0,1,107.74,12.26Z"/><path class="cls-3" d="M99.37,11.7l-.13-.07h0Z"/><path class="cls-3" d="M86.92,62.13c-6.13,5.25-7.83,12.51-8,12.82-1.47,2.19-4,6.58-2.3,8.38a9.59,9.59,0,0,0-.16,3.6.94.94,0,0,0,.39.17l2.06-2.82c2.74.76,2.29-1.06,4.33-5.54C83.57,77.91,90,73.61,94,67.88,90.79,69,86,64.27,86.92,62.13Z"/><path class="cls-3" d="M62.23,58.68a80.41,80.41,0,0,0-9,12.41A35.85,35.85,0,0,0,47,77.64a2.12,2.12,0,0,0,0,2.69,15.81,15.81,0,0,1-1.55,2.07c-.26.3.28.83.54.53a10.07,10.07,0,0,1,2-1.81,2.79,2.79,0,0,0,3.55-.58,64,64,0,0,0,5.52-5.21c2.41-1.64,11.6-9.94,11.61-9.94A9.08,9.08,0,0,1,62.23,58.68Z"/><path class="cls-3" d="M122.9,27.26c-.86-6.2-1.67-8.29-2.86-11a1.66,1.66,0,0,0-.23-.63,2.07,2.07,0,0,1,.16,1.62c-.86,2.72-2.83,2.87-3.91,2.55-3.12-.93-7.92-2.12-11.24-1.85l-1.75,2.11a.51.51,0,0,1-.78,0l-1.87-2.26a64.94,64.94,0,0,0-11,.68c-3.24.57-4.09-3.07-4.2-3.35a1.82,1.82,0,0,1,.36-1.83c-3,2.21-5.59,6.26-7.12,9.13C74,30.73,76.62,32.69,78.41,35c.16.2.91,1.12-.43,2.7-1.18,1.4-2.54,3.16-3.9,4.93l12.16-1.95c.14.21.31.42.46.62s.49.67.72,1L72.48,44.7c-2.13,2.75-4.12,5.19-5.31,5.92a4,4,0,0,0,.39,2.48c-.68.65-1.34,1.31-2,2a9.24,9.24,0,0,0,6.81,6.73h0c1-.6,1.43-.22,4.41-2.54a4.39,4.39,0,0,0,1.36,0c1-1.4,3.69-5.24,11-10.68.26,1,.64,2.06.93,3.1a6.63,6.63,0,0,1-.28,5.16,4.4,4.4,0,0,0,.41,1.32,5.66,5.66,0,0,1-.83,1.27c.23,1.27,4,6,8.12,4a9,9,0,0,0,4-4.15c3-.86,3.48-11.39,3.37-16,3.14.8,3.58.74,4.38.17,1.15-.4,3.3-2.23,4.2-2.42.23.14,4-.9,3.76-1.58C123.57,38,123.78,33.54,122.9,27.26ZM96.23,40.9c-.45-.54-.92-1.06-1.39-1.59v0l13.54-2.18a.67.67,0,0,1,.77.53l.23,1.15Zm15.07-7.29c-.62,1-.75.93-2,1.22.76-1.24.78-2.1,2.07-3.83.5-.57,1.1-1.06,1.54-1.65.13.42.25.85.36,1.27C113.86,32.89,112,32.46,111.3,33.61Z"/><path class="cls-3" d="M98.18,9.92a.71.71,0,0,0,.34.32l.07,0a1.4,1.4,0,0,0,.78.09V11.7h0l-.12-.06h0l-.13-.12c.15,1.07.22,1.07.26,1.13s.41.12.42.11h0a.21.21,0,0,0,.19-.21V9.92a.2.2,0,0,0,0-.07,13.14,13.14,0,0,1,0-1.46.66.66,0,0,1,.38-.52,12.83,12.83,0,0,1,4.44-.67,8.47,8.47,0,0,1,2.91.36.56.56,0,0,1,.29.46c0,.6,0,1.18,0,1.74h0c0,.1,0,.19,0,.26,0,.39,0,.77-.09,1.13h0v0a9,9,0,0,1-.18,1.06h0l.06,0c.35,0,.49-.38.58-1.06.05-.34.08-.73.12-1.18a1.69,1.69,0,0,0,.36-.19.46.46,0,0,0,0-.09,10.69,10.69,0,0,0,.17-2.27.79.79,0,0,1,.3-.56l.07-.06a13,13,0,0,0-.77-3.21l0,0a1.14,1.14,0,0,1-.5-.56,3.9,3.9,0,0,0-.19-.35,5.86,5.86,0,0,0-3-2.72.17.17,0,0,0-.21.09,1.89,1.89,0,0,0-.09.34,8.38,8.38,0,0,0-3.83.24c-.47-.46-.5-.55-.75-.43a4,4,0,0,0-1.91,2.07,6,6,0,0,0-.4,1.56,1,1,0,0,1-.33.62,8,8,0,0,0,.14,3.88C97.93,8.8,97.61,8.24,98.18,9.92Z"/><path class="cls-2" d="M97.39,28.1l-1.34,2.37a.72.72,0,0,0,.63,1.07.87.87,0,0,0,.31-.07l2.55-1.24,1.71,1.4a.75.75,0,0,0,.45.16.72.72,0,0,0,.72-.68l.12-2.55L105.08,27a.71.71,0,0,0,.32-.76.72.72,0,0,0-.62-.56l-2.32-.26-.22-2.21a.72.72,0,0,0-.71-.65.7.7,0,0,0-.58.3l-1.73,2.4-2.7.06A.71.71,0,0,0,96,26.47Zm-.86-2.16,3-.07a.05.05,0,0,0,0,0l1.9-2.63a.09.09,0,0,1,.06,0,.06.06,0,0,1,.06.06l.27,2.68a.06.06,0,0,0,0,.06l2.8.32a.07.07,0,0,1,0,.12l-2.8,1.75a.09.09,0,0,0,0,.06l-.14,2.84a.08.08,0,0,1-.07.07l0,0-2-1.63h-.07l-2.88,1.39h0a.07.07,0,0,1-.06-.1l1.54-2.72a.08.08,0,0,0,0-.08l-1.67-1.94A.07.07,0,0,1,96.53,25.94Z"/></g></g></svg>