<svg xmlns="http://www.w3.org/2000/svg" viewBox="0 0 90.2 81.47"><defs><style>.cls-1{fill:#ed1c24;}.cls-2{fill:#fff;}.cls-3{fill:#18285f;}</style></defs><g id="Слой_2" data-name="Слой 2"><g id="men"><path class="cls-1" d="M80.47,19.54a7.94,7.94,0,0,0-6.29-1.32c-.89.26-1.27,2.23-1.54,3.14l-.09.29c-.65-1-1.31-1.93-2-2.86a22.61,22.61,0,0,0-4.4-4.5,3.93,3.93,0,0,1,1.05,3.21c-.43,2.73-2.23,4.75-5.84,4.26L51.42,20l-4.19,4a.37.37,0,0,1-.58-.09l-2.48-4.74-11.05-.66A5.25,5.25,0,0,1,28.24,14a4.13,4.13,0,0,1,.37-2.29c-.15.11-.31.2-.47.31-2.43,1.68-5.21,5.75-8.28,7a2.75,2.75,0,0,0-1.42,1.43,18.41,18.41,0,0,0-2.21,11.5c.08.8.18,1.61.34,2.4L18.29,37l-.4.72c-.22.39-.46.82-.7,1.29a54.51,54.51,0,0,0-3.34,7.32c-.65,1.93-.23,2.51.84,3.26l2.45,1.73c2.37,1.67,2.82,2,3.59,2.24a3.07,3.07,0,0,0,2.47-.1,2.65,2.65,0,0,0,.86-.75,27.79,27.79,0,0,0,2.1-4.19c.23-.48.48-1,.77-1.61.94-2,2.24-4.48,4.12-7.81A6.16,6.16,0,0,0,31.61,38c3.8,1.57,10.43,5.66,10.93,7.12a2.12,2.12,0,0,1-.11,1.33C52.59,50.93,62,63.23,62.28,63.56c.65.84,1,1.23,1.3,1.62s-.06,1.46.8,2.2a2.31,2.31,0,0,0,.31.19c.12,1.59.5,2.82,1.27,3.19a62.21,62.21,0,0,0,11.65,4.06c.45.1,1.88.38,1.6-.64-.11-.42-.22-.82-.33-1.22a16.38,16.38,0,0,1-6.35-1.33l-.24-.11a42.25,42.25,0,0,1-4.2-1.61c-.35-.16-.71-.3-.84-.79,0,0-.06-.2-.13-.47,1.29.54,2.73,1.11,3.61,1.45-2.45-2.94-6.62-9.94-19.1-22A1.58,1.58,0,0,1,51.55,46c3-3.67,8.14-6.29,11.08-7.5a33.33,33.33,0,0,0-6.2-4,49.45,49.45,0,0,1,4.74-4.37c2.09,1.7,4.11,3.35,6.06,5.24a12.12,12.12,0,0,0,4.23,2.71,5.27,5.27,0,0,0,1.23.34h0c2.8.4,8.89.64,11.07-4.43C85.79,29.31,84.47,22.41,80.47,19.54Z"/><path class="cls-1" d="M42.92,10.39c.25,3.27.73,3.13,2.45,5.28,1.14,1.41.31,5.72,2.17,6s1.81-4.23,3.69-5.37c2.26-1.37,2.16-1.34,4.21-6.7.23-.58.48-1.23.76-2,.1-.26-.09-.49-.36-.68a.88.88,0,0,1-.35-.8c.15-1.52-.9-3.41-2.44-4.65C52.5,2.55,51.28,5.27,50.94,6a.28.28,0,0,1-.3.16L49.47,6l-1.15-.12a.27.27,0,0,1-.25-.23c-.16-.81-.73-3.77-1-4.93h0a6.27,6.27,0,0,0-3.47,4,.85.85,0,0,1-.51.66c-.32.12-.55.28-.53.46.25,3.21.15,1.89.19,2.44C42.77,8.5,42.81,9.05,42.92,10.39ZM52,13.56a.2.2,0,0,1-.28,0,4.83,4.83,0,0,0-.58-.43.07.07,0,0,1,0-.13A5.74,5.74,0,0,0,53,12s.07,0,0,0A8.7,8.7,0,0,1,52,13.56ZM51.8,9a12.57,12.57,0,0,0,1.87,0,.06.06,0,0,1,.06.08,3.42,3.42,0,0,1-.31.9.05.05,0,0,1-.09,0,6.46,6.46,0,0,0-1.56-.86A.06.06,0,0,1,51.8,9Zm-2,.92a.23.23,0,0,1,.28-.21,6.68,6.68,0,0,1,2.47,1,.26.26,0,0,1,0,.4,4.79,4.79,0,0,1-2.76,1.18.24.24,0,0,1-.26-.27Zm-.46,3.79a.17.17,0,0,1,.23-.15,4.79,4.79,0,0,1,1.4.73.19.19,0,0,1,0,.3,4.39,4.39,0,0,1-1.57.71.18.18,0,0,1-.22-.2Zm-4.12-.95a9.28,9.28,0,0,1-.65-1.7s0-.06.06,0a5.73,5.73,0,0,0,1.53,1.41.07.07,0,0,1,0,.13,5.58,5.58,0,0,0-.67.28A.2.2,0,0,1,45.2,12.73Zm2.44,2.15a.18.18,0,0,1-.26.14A4.21,4.21,0,0,1,46,14a.19.19,0,0,1,.06-.29,4.85,4.85,0,0,1,1.51-.37.17.17,0,0,1,.19.2ZM48,9.43a.25.25,0,0,1,.22.28L48,11.81a.24.24,0,0,1-.3.21,4.81,4.81,0,0,1-2.53-1.78.25.25,0,0,1,.1-.38A6.52,6.52,0,0,1,48,9.43ZM44.55,7.81a17.09,17.09,0,0,0,2.05.52.06.06,0,0,1,0,.12A6,6,0,0,0,44.66,9a.06.06,0,0,1-.08,0,3.68,3.68,0,0,1-.11-1.1A.05.05,0,0,1,44.55,7.81Z"/><path class="cls-2" d="M44.66,9a6,6,0,0,1,1.93-.54.06.06,0,0,0,0-.12,17.09,17.09,0,0,1-2.05-.52.05.05,0,0,0-.08.05A3.68,3.68,0,0,0,44.58,9,.06.06,0,0,0,44.66,9Z"/><path class="cls-2" d="M48,9.43a6.52,6.52,0,0,0-2.76.43.25.25,0,0,0-.1.38A4.81,4.81,0,0,0,47.71,12a.24.24,0,0,0,.3-.21l.25-2.1A.25.25,0,0,0,48,9.43Z"/><path class="cls-2" d="M49.55,13.53a.17.17,0,0,0-.23.15l-.17,1.39a.18.18,0,0,0,.22.2,4.39,4.39,0,0,0,1.57-.71.19.19,0,0,0,0-.3A4.79,4.79,0,0,0,49.55,13.53Z"/><path class="cls-2" d="M53,12a5.74,5.74,0,0,1-1.82,1,.07.07,0,0,0,0,.13,4.83,4.83,0,0,1,.58.43.2.2,0,0,0,.28,0,8.7,8.7,0,0,0,1-1.5S53.05,12,53,12Z"/><path class="cls-2" d="M46.14,12.41A5.73,5.73,0,0,1,44.61,11s-.07,0-.06,0a9.28,9.28,0,0,0,.65,1.7.2.2,0,0,0,.26.09,5.58,5.58,0,0,1,.67-.28A.07.07,0,0,0,46.14,12.41Z"/><path class="cls-2" d="M47.61,13.3a4.85,4.85,0,0,0-1.51.37A.19.19,0,0,0,46,14,4.21,4.21,0,0,0,47.38,15a.18.18,0,0,0,.26-.14l.16-1.38A.17.17,0,0,0,47.61,13.3Z"/><path class="cls-2" d="M53.67,9A12.57,12.57,0,0,1,51.8,9a.06.06,0,0,0,0,.12,6.46,6.46,0,0,1,1.56.86.05.05,0,0,0,.09,0,3.42,3.42,0,0,0,.31-.9A.06.06,0,0,0,53.67,9Z"/><path class="cls-2" d="M49.79,12.24a4.79,4.79,0,0,0,2.76-1.18.26.26,0,0,0,0-.4,6.68,6.68,0,0,0-2.47-1,.23.23,0,0,0-.28.21L49.53,12A.24.24,0,0,0,49.79,12.24Z"/><path class="cls-3" d="M33.12,18.49l11.05.66,2.48,4.74a.37.37,0,0,0,.58.09l4.19-4,9.92,1.78c3.61.49,5.41-1.53,5.84-4.26a3.93,3.93,0,0,0-1.05-3.21,14.35,14.35,0,0,0-1.7-1.08,28.5,28.5,0,0,0-7.75-2.63,15.71,15.71,0,0,0-1.24-1c-2,5.36-1.95,5.33-4.21,6.7-1.88,1.14-1.83,5.62-3.69,5.37s-1-4.56-2.17-6c-1.72-2.15-2.2-2-2.45-5.28-.11-1.34-.15-1.89-.17-2.11-.7.23-1.41.5-2.14.8-4.81-.13-8.16.12-12,2.61A4.13,4.13,0,0,0,28.24,14,5.25,5.25,0,0,0,33.12,18.49Z"/><path class="cls-3" d="M85.78,60.6c-2.72-3.09-7.71-11.47-19.67-22.2a2,2,0,0,0-2-.49c-.38.12-.88.31-1.46.55-2.94,1.21-8.12,3.83-11.08,7.5a1.58,1.58,0,0,0,.08,2.11c12.48,12.09,16.65,19.09,19.1,22a5.68,5.68,0,0,0,1.56,1.42l.24.11a22.75,22.75,0,0,0,4.06,1.16h0a10.91,10.91,0,0,0,2.28.17c2.64-.11,4.61-1.35,7.71-3.19C91.64,66.79,91.41,67,85.78,60.6Z"/><path class="cls-3" d="M17.89,37.76l.4-.72-1.72-2.72L2.2,11.74a1.08,1.08,0,0,0-1.4-.39l-.2.1a1.06,1.06,0,0,0-.56.68A1.09,1.09,0,0,0,.18,13l17,26C17.43,38.58,17.67,38.15,17.89,37.76Z"/><path class="cls-3" d="M67.13,74.5c-.53-.82-1.28-.8-2.2-.71-4.21.37-8.79,1.12-16.85,1.36a4.13,4.13,0,0,1-3.61-1.75L34.18,57.87c3.74-4.39,7.44-8.88,8.25-11.4a2.12,2.12,0,0,0,.11-1.33C42,43.68,35.41,39.59,31.61,38a6.16,6.16,0,0,1-.56,1.12C29.17,42.47,27.87,45,26.93,47c-.29.59-.54,1.13-.77,1.61a27.79,27.79,0,0,1-2.1,4.19,2.65,2.65,0,0,1-.86.75,3.07,3.07,0,0,1-2.47.1c-.77-.27-1.22-.57-3.59-2.24-4,5.34-7.43,10.37-7.67,11.23-.55,2-1.47,6.1-.76,8.07,1,2.8,10.68,4.36,14.25,4.68,1.72.15,1.89-.5,2.1-1.35.43-1.83,1-4.09,1.31-6.51a59.85,59.85,0,0,1,4.16-5.32L42.39,79.39a5.51,5.51,0,0,0,4.2,2.08c2.49,0,15.79-1.24,19.13-1.69,3.1-.42,4.08-.18,3-2.48A14.64,14.64,0,0,0,67.13,74.5Z"/><path class="cls-3" d="M48.32,5.91,49.47,6l1.17.16a.28.28,0,0,0,.3-.16c.34-.76,1.56-3.48,2.11-4.55h0A.23.23,0,0,0,53,1.18,6.1,6.1,0,0,0,50.18,0a6.34,6.34,0,0,0-3,.45.24.24,0,0,0-.13.26h0c.27,1.16.84,4.12,1,4.93A.27.27,0,0,0,48.32,5.91Z"/><path class="cls-2" d="M42.21,31.54,41,33.61a.74.74,0,0,0,0,.72.73.73,0,0,0,.62.36.76.76,0,0,0,.27,0l2.32-.94,1.56,1.43a.7.7,0,0,0,.48.18.71.71,0,0,0,.71-.68l.11-2.31,2.28-1.25a.73.73,0,0,0,.37-.74.74.74,0,0,0-.57-.59L47,29.3l-.21-2.09a.71.71,0,0,0-1.28-.36L44,28.9l-2.42-.15h-.05a.71.71,0,0,0-.64.4.72.72,0,0,0,.08.76Zm-.73-2.14h0l2.73.17h0a.05.05,0,0,0,.05,0L46,27.24a.05.05,0,0,1,0,0,.06.06,0,0,1,.06.06l.25,2.53s0,.05,0,.06l2.58.52a.07.07,0,0,1,0,.12l-2.57,1.41a.06.06,0,0,0,0,.06L46.3,34.6a.06.06,0,0,1-.06.06s0,0,0,0L44.36,33h-.07L41.64,34h0a.06.06,0,0,1,0-.1L43,31.52a.06.06,0,0,0,0-.07L41.43,29.5A.06.06,0,0,1,41.48,29.4Z"/></g></g></svg>