<svg xmlns="http://www.w3.org/2000/svg" viewBox="0 0 83.26 82.61"><defs><style>.cls-1{fill:#1e4286;}.cls-2{fill:#fff;}.cls-3{fill:#ed1c24;}</style></defs><g id="Слой_2" data-name="Слой 2"><g id="men"><path class="cls-1" d="M47,22.3a42.23,42.23,0,0,1,5.19-2.6s1.12,1.95,1.53,2.58a.82.82,0,0,0,1.35,0c1.1-1.88,2.2-3.7,3.24-5.44a4.33,4.33,0,0,1-1.73-.23,22.89,22.89,0,0,1-1.79,2.87c-.06.08-.13.17-.23.16a.21.21,0,0,1-.14-.1,11.18,11.18,0,0,1-2.21-6.06,1.72,1.72,0,0,1-1.35-1.32,20,20,0,0,1-.74-3.82,36.72,36.72,0,0,0-10.74,6.57,33.46,33.46,0,0,0-4.25,4.45,2.69,2.69,0,0,0,.88,2.56C38.14,24,42,25.24,47,22.3Z"/><path class="cls-1" d="M71.4,9.07a3.67,3.67,0,0,0-1.13-2.62,69.85,69.85,0,0,0-8.12-.13c.06.25.12.49.18.71a1.08,1.08,0,0,1-.15.8c.1,2.79-.36,2.92-.94,3.18,0,.09,0,.19,0,.28a14.31,14.31,0,0,1-.53,4s0,.05,0,.08c1.42-.31,3.42-.49,5.56-.84C70.72,13.79,71.58,11.1,71.4,9.07Z"/><path class="cls-1" d="M61.24,11h0v0Z"/><path class="cls-1" d="M52.17,12.75l.08,0c0-.15,0-.3,0-.45a2,2,0,0,1-.83-.79h0C51.52,12.4,51.89,12.63,52.17,12.75Z"/><path class="cls-1" d="M52.43,54.25a20.81,20.81,0,0,1-.67,2.59,13.45,13.45,0,0,0-.19,1.42c.71,1.71,6.7,2.54,8.13.77.44-1.61.89-3.25,1.17-4.21,0-.1.08-.18.12-.27C58.83,56.07,54.29,55.65,52.43,54.25Z"/><path class="cls-1" d="M24.91,60.8c.93-1.32,1.81-2.71,2.62-3.91-2.73-1.12-5.43-3.4-6.07-6.29-.45.46-1.12,1.1-2.23,2.21a9.78,9.78,0,0,0-1.31,1.87C18.86,59.73,24,60.67,24.91,60.8Z"/><path class="cls-1" d="M75.9,29.27l0,0-1.72,1.44L60.83,41.93l-8.78,7.38c.22.3.2.63-.14,1a1.18,1.18,0,0,1-1.62.44l-.75.64C39.76,59.63,30.14,67.7,24.7,72.25c-4.83,4-6.65,5-10.93,4.59-.56-.06-1.16-.14-1.81-.24-1.59-.25-2.84-.49-3.93-.71-2-.41-3.41-.78-5.21-1.13s-2.64.5-2.77,1.56c-.21,1.56.21,2.51,2.59,2.91,1.43.24,3.3.5,5.23.7.79.09,1.6.16,2.39.23a33.8,33.8,0,0,0,5.34.08,7.24,7.24,0,0,0,4-1.61L50.85,52.4l2.06-1.73a.08.08,0,0,0,0,0,1.75,1.75,0,0,1,.13-.81c.29-.68.81-1,3.53-3.1.5-.39.89-.36,1.17-.09l3.71-3.12L75.07,32.08l1.38-1.16C77.5,30,76.88,28.48,75.9,29.27Z"/><path class="cls-2" d="M61.26,8.75a10.22,10.22,0,0,1-5.82,1.41.75.75,0,0,0-.78.71,5,5,0,0,0,0,.81.23.23,0,0,1-.26.25l-.53-.07a4.23,4.23,0,0,1-.24,1.23.74.74,0,0,1-.81.47,3.1,3.1,0,0,1-.59-.11,11.18,11.18,0,0,0,2.21,6.06.21.21,0,0,0,.14.1c.1,0,.17-.08.23-.16a22.89,22.89,0,0,0,1.79-2.87,4.33,4.33,0,0,0,1.73.23,2.55,2.55,0,0,0,2.3-1.46s0,0,0-.08a14.31,14.31,0,0,0,.53-4c0-.12,0-.24,0-.35A15.42,15.42,0,0,0,61.26,8.75Z"/><path class="cls-2" d="M53.06,12.71a2.23,2.23,0,0,0,.14-1l-.44-.07a.28.28,0,0,1-.21-.22l-.25-1.39a.63.63,0,0,0-.46-.46,5.8,5.8,0,0,1-.71-.35.06.06,0,0,0-.09,0,6.75,6.75,0,0,0,.05,1.1s0,.08,0,.11a3.6,3.6,0,0,0,.32,1,2,2,0,0,0,.83.79c0,.15,0,.3,0,.45C52.57,12.91,52.9,13,53.06,12.71Z"/><path class="cls-3" d="M63.59,73.74c-1.29-1-5.2-4.24-5.47-5.83-.22-1.3-.47-.65.58-5,.21-.9.6-2.37,1-3.86-1.43,1.77-7.42.94-8.13-.77-.25,2.86.27,6,.26,8.78,0,2.15-1.08,3.4-.74,5.42a1.33,1.33,0,0,0,.69,1c-.52.68-.94,1.22-1.23,1.67a1,1,0,0,0,.38,1.38A44.66,44.66,0,0,0,63.2,80.13a.58.58,0,0,0,.47-.24.66.66,0,0,0,.13-.51c-.08-.57-.27-1.32-.44-2,.83.05,1.15-.06,1.75-1.59C65.46,74.86,64.23,74.22,63.59,73.74Zm-3,3.94a.34.34,0,0,1-.32.13,17.59,17.59,0,0,1-6.1-2.14,13.55,13.55,0,0,1,.94-1.27,5.51,5.51,0,0,1,.65.31,24.22,24.22,0,0,0,4.66,2.06c.08.19.16.38.23.57A.35.35,0,0,1,60.56,77.68Z"/><path class="cls-3" d="M51.71,52.51c.28.74.49.73.6,1a1.63,1.63,0,0,1,.12.77c1.86,1.4,6.4,1.82,8.56.3.95-2.08,1.53-3.19,1.2-4.47a6.4,6.4,0,0,0,.94-1.45,32.05,32.05,0,0,0-1.69-5.12l-3.71,3.12c-.28-.27-.67-.3-1.17.09-2.72,2.11-3.24,2.42-3.53,3.1a1.75,1.75,0,0,0-.13.81.08.08,0,0,1,0,0L50.85,52.4A1.15,1.15,0,0,0,51.71,52.51Z"/><path class="cls-3" d="M17.92,54.68a75.39,75.39,0,0,0-5.41,13.1,8.46,8.46,0,0,0-2.43,2.92A36.41,36.41,0,0,0,8,75.89c1.09.22,2.34.46,3.93.71.65.1,1.25.18,1.81.24a53.85,53.85,0,0,1,2.92-6.35c1-1.78,5-5.63,6.77-7.78.5-.6,1-1.25,1.45-1.91C24,60.67,18.86,59.73,17.92,54.68Z"/><path class="cls-3" d="M82.55,24.53a17.13,17.13,0,0,0-1.7-3c-.44-.72-.07-2.1-.55-2.8a.5.5,0,0,0-.45-.23C78.44,12.37,75.78,7.81,73.59,7a15,15,0,0,0-3.32-.57A3.67,3.67,0,0,1,71.4,9.07c.18,2-.68,4.72-5.19,5.44-2.14.35-4.14.53-5.56.84a2.55,2.55,0,0,1-2.3,1.46c-1,1.74-2.14,3.56-3.24,5.44a.82.82,0,0,1-1.35,0c-.41-.63-1.53-2.58-1.53-2.58A42.23,42.23,0,0,0,47,22.3c-5.06,2.94-8.9,1.7-11-.41a2.69,2.69,0,0,1-.88-2.56C32.26,23,29.78,27.47,30.5,30.52a88.48,88.48,0,0,0-8.2,16.25,3.76,3.76,0,0,0,.46,2,6,6,0,0,1-1.3,1.85c.64,2.89,3.34,5.17,6.07,6.29.25-.36.49-.71.72-1,.59-.8,1.43-1.37,2.05-2.14a2.72,2.72,0,0,0,2.2-.8,73.3,73.3,0,0,0,7.4-8.41,23.88,23.88,0,0,0,3,1.43c-.11.81-.25.71,1.22,1.36.58.64,1.48,2.43,3,3A14.14,14.14,0,0,1,49,51a5.05,5.05,0,0,1,.54.42l.75-.64a1.18,1.18,0,0,0,1.62-.44c.34-.4.36-.73.14-1l8.78-7.38c-1.37-3.51-2.87-7.18-3.07-7.8s.53-1.22.86-1.56C61.17,30,61.82,21.15,70,18.13c1.2-.45,1.61.42,3.38,2.89-.36.49-.2,1.06.65,2.27.74,1.05-.18,2.21-.12,3.44a8.39,8.39,0,0,0,.53,2.7h0a1.16,1.16,0,0,0-.26,1.31l1.72-1.44,0,0c1-.79,1.6.73.55,1.65l-1.38,1.16c.7.69,3,.26,4.64-.7h0a1.64,1.64,0,0,0,.29-.16C84,28.58,83.57,26.93,82.55,24.53Z"/><path class="cls-3" d="M8,82.47l.56.14c.55-.8,1.14-1.63,1.72-2.45-.79-.07-1.6-.14-2.39-.23A3.88,3.88,0,0,0,8,82.47Z"/><path class="cls-3" d="M50.16,8.31a20,20,0,0,0,.74,3.82,1.72,1.72,0,0,0,1.35,1.32,3.1,3.1,0,0,0,.59.11.74.74,0,0,0,.81-.47,4.23,4.23,0,0,0,.24-1.23l.53.07a.23.23,0,0,0,.26-.25,5,5,0,0,1,0-.81.75.75,0,0,1,.78-.71,10.22,10.22,0,0,0,5.82-1.41,15.42,15.42,0,0,1,0,2.19V11c.58-.26,1-.39.94-3.18a1.08,1.08,0,0,0,.15-.8c-.06-.22-.12-.46-.18-.71-.23-.87-.48-1.8-.57-2.1a.54.54,0,0,0-.1-.2,3.25,3.25,0,0,0-1.26-1A8.66,8.66,0,0,0,56.29.12c-.75-.18-.82-.29-1.61.67a4.6,4.6,0,0,0-2.25.93A2,2,0,0,0,51,1.79a4.2,4.2,0,0,0-.69,2.8,1.61,1.61,0,0,1-.17.85.67.67,0,0,0-.1.39c0,.61.09,2,.12,2.32C50.15,8.2,50.15,8.26,50.16,8.31Zm2.9,4.4c-.16.27-.49.2-.81.07l-.08,0c-.28-.12-.65-.35-.74-1.21h0a3.6,3.6,0,0,1-.32-1s0-.07,0-.11A6.75,6.75,0,0,1,51,9.29a.06.06,0,0,1,.09,0,5.8,5.8,0,0,0,.71.35.63.63,0,0,1,.46.46l.25,1.39a.28.28,0,0,0,.21.22l.44.07A2.23,2.23,0,0,1,53.06,12.71Z"/><path class="cls-2" d="M51,29.14,50.27,31a.74.74,0,0,0,.08.66.73.73,0,0,0,.59.31.71.71,0,0,0,.43-.14L53,30.55l1.25.69a.73.73,0,0,0,.35.09.72.72,0,0,0,.52-.23.68.68,0,0,0,.19-.54l-.13-1.84,1.66-1.54a.71.71,0,0,0,.18-.79.72.72,0,0,0-.67-.45h-.07l-1.5.16-.31-1.38a.71.71,0,0,0-.7-.56.7.7,0,0,0-.63.39l-1,2L50.22,27a.73.73,0,0,0-.53.53.7.7,0,0,0,.24.71Zm-.6-1.5,2.16-.53a.09.09,0,0,0,.05,0l1.14-2.23a.05.05,0,0,1,.05,0,.08.08,0,0,1,.07.05l.42,1.89a.06.06,0,0,0,.06.05h0l2-.21h0a.07.07,0,0,1,0,.11l-1.87,1.73a.14.14,0,0,0,0,.06l.15,2.12a.06.06,0,0,1-.06.07h0L53,29.8h-.07L51,31.27h0a.06.06,0,0,1-.06-.09L51.74,29a.07.07,0,0,0,0-.07l-1.37-1.15A.07.07,0,0,1,50.38,27.64Z"/></g></g></svg>