<svg xmlns="http://www.w3.org/2000/svg" viewBox="0 0 90.2 81.48"><defs><style>.cls-1{fill:#ed1c24;}.cls-2{fill:#fff;}.cls-3{fill:#1e4286;}</style></defs><g id="Слой_2" data-name="Слой 2"><g id="men"><path class="cls-1" d="M80.47,19.54a8,8,0,0,0-6.29-1.32c-.89.26-1.27,2.24-1.54,3.14l-.09.3c-.65-1-1.32-1.94-2-2.87a22.39,22.39,0,0,0-4.41-4.5,3.91,3.91,0,0,1,1.06,3.21c-.43,2.73-2.23,4.75-5.84,4.26L51.42,20l-4.2,4a.36.36,0,0,1-.57-.1l-2.48-4.74-11.05-.66A5.24,5.24,0,0,1,28.24,14a4.08,4.08,0,0,1,.37-2.28l-.47.31c-2.43,1.67-5.21,5.74-8.28,7a2.77,2.77,0,0,0-1.42,1.42,18.42,18.42,0,0,0-2.21,11.51c.08.8.18,1.61.34,2.4L18.29,37l-.4.72c-.22.4-.46.83-.7,1.29a55.66,55.66,0,0,0-3.34,7.32c-.65,1.94-.23,2.52.84,3.27l2.45,1.73c2.37,1.67,2.82,2,3.59,2.23a3.07,3.07,0,0,0,2.47-.09,2.65,2.65,0,0,0,.86-.75,27.79,27.79,0,0,0,2.1-4.19c.23-.49.48-1,.77-1.61.94-2,2.24-4.49,4.12-7.81A6.5,6.5,0,0,0,31.61,38c3.8,1.57,10.43,5.66,10.93,7.12a2.09,2.09,0,0,1-.11,1.32C52.59,50.94,62,63.24,62.28,63.57c.65.84,1,1.23,1.3,1.62s-.06,1.46.8,2.2a2.31,2.31,0,0,0,.31.19c.12,1.59.5,2.83,1.27,3.19a61.48,61.48,0,0,0,11.65,4.06c.45.1,1.88.38,1.6-.64L78.88,73a16.38,16.38,0,0,1-6.35-1.33,1.28,1.28,0,0,1-.24-.11,39.9,39.9,0,0,1-4.2-1.61c-.36-.16-.71-.3-.84-.79,0,0-.06-.19-.13-.46,1.29.53,2.73,1.1,3.61,1.44-2.46-2.94-6.62-9.94-19.1-22A1.58,1.58,0,0,1,51.55,46c3-3.67,8.14-6.29,11.08-7.5a33.33,33.33,0,0,0-6.2-4,48.41,48.41,0,0,1,4.74-4.38c2.09,1.7,4.11,3.35,6,5.25a12.3,12.3,0,0,0,4.23,2.71,6.05,6.05,0,0,0,1.24.34h0c2.79.4,8.89.64,11.07-4.43C85.79,29.31,84.47,22.41,80.47,19.54Z"/><path class="cls-1" d="M42.91,10.39c.26,3.27.74,3.13,2.46,5.28,1.14,1.42.31,5.73,2.17,6s1.81-4.22,3.69-5.37c2.26-1.37,2.15-1.33,4.21-6.7.22-.58.47-1.23.76-2,.1-.26-.09-.49-.36-.68a.86.86,0,0,1-.35-.79,6,6,0,0,0-2.44-4.66C52.5,2.55,51.28,5.27,50.94,6a.28.28,0,0,1-.3.16L49.47,6l-1.15-.12a.27.27,0,0,1-.25-.23c-.16-.81-.73-3.77-1-4.93h0a6.29,6.29,0,0,0-3.47,4,.85.85,0,0,1-.51.65c-.32.12-.55.28-.53.46.25,3.21.14,1.89.19,2.44C42.77,8.51,42.81,9.05,42.91,10.39ZM52,13.56a.2.2,0,0,1-.28,0,4.83,4.83,0,0,0-.58-.43.07.07,0,0,1,0-.13A5.47,5.47,0,0,0,53,12s.07,0,0,0A9.3,9.3,0,0,1,52,13.56ZM51.8,9a14.28,14.28,0,0,0,1.87,0,.05.05,0,0,1,.06.07,3.42,3.42,0,0,1-.31.9.05.05,0,0,1-.09,0,6.46,6.46,0,0,0-1.56-.86C51.71,9.07,51.73,9,51.8,9Zm-2,.92a.23.23,0,0,1,.28-.21,6.52,6.52,0,0,1,2.47,1,.25.25,0,0,1,0,.39,4.79,4.79,0,0,1-2.76,1.18.25.25,0,0,1-.27-.27Zm-.46,3.8a.18.18,0,0,1,.23-.16,4.82,4.82,0,0,1,1.4.74.19.19,0,0,1,0,.3,4.57,4.57,0,0,1-1.57.7.18.18,0,0,1-.22-.2Zm-4.12-.95A8.11,8.11,0,0,1,44.55,11a0,0,0,0,1,.06,0,5.73,5.73,0,0,0,1.53,1.41.07.07,0,0,1,0,.13,5.58,5.58,0,0,0-.67.28A.19.19,0,0,1,45.2,12.74Zm2.43,2.14a.18.18,0,0,1-.25.15A4.35,4.35,0,0,1,46,14a.18.18,0,0,1,.06-.29,4.6,4.6,0,0,1,1.51-.38.18.18,0,0,1,.19.21ZM48,9.44a.24.24,0,0,1,.23.27L48,11.81a.24.24,0,0,1-.31.21,4.82,4.82,0,0,1-2.52-1.78.25.25,0,0,1,.1-.38A6.35,6.35,0,0,1,48,9.44ZM44.54,7.81a17.85,17.85,0,0,0,2.06.52.06.06,0,0,1,0,.12A6,6,0,0,0,44.66,9a.07.07,0,0,1-.08,0,3.68,3.68,0,0,1-.11-1.1A.05.05,0,0,1,44.54,7.81Z"/><path class="cls-2" d="M44.66,9a6,6,0,0,1,1.93-.55.06.06,0,0,0,0-.12,17.85,17.85,0,0,1-2.06-.52.05.05,0,0,0-.07.05A3.68,3.68,0,0,0,44.58,9,.07.07,0,0,0,44.66,9Z"/><path class="cls-2" d="M48,9.44a6.35,6.35,0,0,0-2.75.42.25.25,0,0,0-.1.38A4.82,4.82,0,0,0,47.7,12a.24.24,0,0,0,.31-.21l.25-2.1A.24.24,0,0,0,48,9.44Z"/><path class="cls-2" d="M49.55,13.53a.18.18,0,0,0-.23.16l-.17,1.38a.18.18,0,0,0,.22.2,4.57,4.57,0,0,0,1.57-.7.19.19,0,0,0,0-.3A4.82,4.82,0,0,0,49.55,13.53Z"/><path class="cls-2" d="M53,12a5.47,5.47,0,0,1-1.82,1,.07.07,0,0,0,0,.13,4.83,4.83,0,0,1,.58.43.2.2,0,0,0,.28,0,9.3,9.3,0,0,0,1-1.5S53.05,12,53,12Z"/><path class="cls-2" d="M46.14,12.41A5.73,5.73,0,0,1,44.61,11a0,0,0,0,0-.06,0,8.11,8.11,0,0,0,.65,1.71.19.19,0,0,0,.26.08,5.58,5.58,0,0,1,.67-.28A.07.07,0,0,0,46.14,12.41Z"/><path class="cls-2" d="M47.61,13.3a4.6,4.6,0,0,0-1.51.38A.18.18,0,0,0,46,14,4.35,4.35,0,0,0,47.38,15a.18.18,0,0,0,.25-.15l.17-1.37A.18.18,0,0,0,47.61,13.3Z"/><path class="cls-2" d="M53.67,9A14.28,14.28,0,0,1,51.8,9c-.07,0-.09.1,0,.12a6.46,6.46,0,0,1,1.56.86.05.05,0,0,0,.09,0,3.42,3.42,0,0,0,.31-.9A.05.05,0,0,0,53.67,9Z"/><path class="cls-2" d="M49.79,12.24a4.79,4.79,0,0,0,2.76-1.18.25.25,0,0,0,0-.39,6.52,6.52,0,0,0-2.47-1,.23.23,0,0,0-.28.21L49.52,12A.25.25,0,0,0,49.79,12.24Z"/><path class="cls-3" d="M33.12,18.49l11.05.66,2.48,4.74a.36.36,0,0,0,.57.1l4.2-4,9.92,1.78c3.61.49,5.41-1.53,5.84-4.26a3.91,3.91,0,0,0-1.06-3.21,14.7,14.7,0,0,0-1.69-1.08,28.5,28.5,0,0,0-7.75-2.63c-.41-.37-.83-.7-1.24-1-2.06,5.37-1.95,5.33-4.21,6.7-1.88,1.15-1.84,5.62-3.69,5.37s-1-4.55-2.17-6c-1.72-2.15-2.2-2-2.46-5.28-.1-1.34-.14-1.88-.16-2.11-.7.24-1.41.5-2.14.8-4.81-.13-8.16.12-12,2.62A4.08,4.08,0,0,0,28.24,14,5.24,5.24,0,0,0,33.12,18.49Z"/><path class="cls-3" d="M85.78,60.61c-2.72-3.09-7.71-11.47-19.67-22.2a2.07,2.07,0,0,0-2-.5c-.37.13-.87.32-1.45.56-2.94,1.21-8.12,3.83-11.08,7.5a1.58,1.58,0,0,0,.08,2.11c12.48,12.09,16.64,19.09,19.1,22a5.68,5.68,0,0,0,1.56,1.42,1.28,1.28,0,0,0,.24.11,22.75,22.75,0,0,0,4.06,1.16h0a10.36,10.36,0,0,0,2.29.17c2.64-.11,4.61-1.35,7.71-3.18C91.64,66.8,91.41,67,85.78,60.61Z"/><path class="cls-3" d="M17.89,37.76l.4-.72-1.72-2.71L2.2,11.74a1.08,1.08,0,0,0-1.4-.39l-.2.1a1.08,1.08,0,0,0-.56.68A1.09,1.09,0,0,0,.18,13l17,26C17.43,38.59,17.67,38.16,17.89,37.76Z"/><path class="cls-3" d="M67.13,74.51c-.53-.82-1.28-.79-2.2-.71-4.21.38-8.79,1.12-16.85,1.36a4.13,4.13,0,0,1-3.61-1.75L34.18,57.88c3.74-4.39,7.43-8.89,8.25-11.41a2.09,2.09,0,0,0,.11-1.32C42,43.69,35.41,39.6,31.61,38a6.5,6.5,0,0,1-.56,1.12C29.17,42.47,27.87,45,26.93,47c-.29.59-.54,1.12-.77,1.61a27.79,27.79,0,0,1-2.1,4.19,2.65,2.65,0,0,1-.86.75,3.07,3.07,0,0,1-2.47.09c-.77-.26-1.22-.56-3.59-2.23-4,5.34-7.43,10.38-7.67,11.23-.55,2-1.47,6.1-.76,8.07C9.73,73.48,19.38,75,23,75.35c1.72.15,1.89-.49,2.1-1.35.42-1.83,1-4.09,1.3-6.51a63.84,63.84,0,0,1,4.17-5.32L42.38,79.41a5.57,5.57,0,0,0,4.21,2.07c2.49,0,15.79-1.24,19.12-1.69,3.11-.42,4.09-.17,3-2.47A15.05,15.05,0,0,0,67.13,74.51Z"/><path class="cls-3" d="M48.32,5.91,49.47,6l1.17.16a.28.28,0,0,0,.3-.16c.34-.76,1.56-3.48,2.11-4.55h0A.23.23,0,0,0,53,1.18,6.1,6.1,0,0,0,50.18,0a6.34,6.34,0,0,0-3,.45.24.24,0,0,0-.13.26h0c.27,1.16.84,4.12,1,4.93A.27.27,0,0,0,48.32,5.91Z"/><path class="cls-2" d="M42.2,31.54,41,33.62a.74.74,0,0,0,0,.72.73.73,0,0,0,.62.36.6.6,0,0,0,.27-.06l2.32-.93,1.56,1.42A.71.71,0,0,0,47,34.64l.11-2.31,2.28-1.26a.71.71,0,0,0,.36-.73.71.71,0,0,0-.56-.6L47,29.31l-.21-2.1a.71.71,0,0,0-.71-.64.69.69,0,0,0-.57.28L44,28.9l-2.42-.15h-.05a.72.72,0,0,0-.56,1.16Zm-.72-2.14h0l2.73.17h0l.05,0L46,27.24l0,0a.06.06,0,0,1,.06.06l.25,2.52a.06.06,0,0,0,0,.06l2.58.52a.07.07,0,0,1,0,.12l-2.57,1.42a.05.05,0,0,0,0,0l-.13,2.64a.06.06,0,0,1-.06.06l-.05,0L44.36,33l0,0h0L41.64,34h0a.07.07,0,0,1,0-.1L43,31.52a.06.06,0,0,0,0-.07l-1.53-1.94A.07.07,0,0,1,41.48,29.4Z"/></g></g></svg>