<svg xmlns="http://www.w3.org/2000/svg" viewBox="0 0 138.18 79.52"><defs><style>.cls-1{fill:#fff;}.cls-2{fill:#1e4286;}.cls-3{fill:#ed1c24;}</style></defs><g id="Слой_2" data-name="Слой 2"><g id="men"><path class="cls-1" d="M70.6,10l-.73,0a.33.33,0,0,1-.1,0h0a1,1,0,0,1-.53-.16,3.8,3.8,0,0,1-1.19-1h0c.13,0,.18-.14.23-.37l.15-.74.2-1a.31.31,0,0,1,.29-.27l1.76-.07a.21.21,0,0,1,.2.19l.19,1.56a.34.34,0,0,0,.32.31h.22a4.41,4.41,0,0,1-.39,1.08A.72.72,0,0,1,70.6,10Z"/><path class="cls-1" d="M66.9,8.78a.17.17,0,0,0,.13.07h.16a7.29,7.29,0,0,0,1.55,1.44,1.55,1.55,0,0,0,.91.37l.69,0h.44a1.09,1.09,0,0,0,1-.69,6.33,6.33,0,0,0,.45-1.41h.43a.18.18,0,0,0,.18-.17l0-1.14a.82.82,0,0,1,.09-.35.75.75,0,0,1,.7-.43h.11c1,0,2.51,0,3.4,0,0,.08,0,.17,0,.25.07.41.13.77.13.85,0,.36-.41.27-.26.94s.33,1.14.63,2.09a1.62,1.62,0,0,1-.69.24c0,.56-.19,2.44-.24,2.63-.09.41-2.45.6-4,0l-.2.27c-.32.38-.71.74-.91,1A9.75,9.75,0,0,0,70.3,18a25.75,25.75,0,0,0-4.24-8.78A2.43,2.43,0,0,0,66.9,8.78Z"/><path class="cls-2" d="M70.42,34.79a7.7,7.7,0,0,1,.34-1.25.42.42,0,0,0,0-.1l2.81,2.5,3.57,3.17a1.81,1.81,0,0,1-.75-.16c-.74-.43-1.85-1.46-2.47-1.5a1.54,1.54,0,0,0-.58.13l-.1.05-2.17-2.16Z"/><path class="cls-2" d="M81,43.36c.11-.08.55-.37,1.3.25,10.08,9,23,20.46,30.84,27.36,5.45,4.83,7.07,5.55,12.89,4.8,4.61-.6,6.52-1.14,9.37-1.62,1.71-.29,2.68.59,2.79,1.67.16,1.6-.29,2.55-2.73,2.9-3.67.51-10.18,1.07-13.25.66a7.34,7.34,0,0,1-4-1.75L84.07,47.41l-3-2.69v0h0C80.36,44.13,80.61,43.63,81,43.36Z"/><path class="cls-2" d="M61.34,8.68a6.82,6.82,0,0,1,1.5-.54,9.93,9.93,0,0,1,3.9.22,2.19,2.19,0,0,1,.1.34.16.16,0,0,0,.06.08,2.43,2.43,0,0,1-.84.41A25.75,25.75,0,0,1,70.3,18a9.75,9.75,0,0,1,1.4-3.28c.2-.22.59-.58.91-1a18,18,0,0,1,1.57,3.7,4,4,0,0,0-2.24-.6c-.46,1.24-.82,2.54-1.29,3.81-.32.84-.83.55-1-.06a16.56,16.56,0,0,0-.86-2.85c-.91.38-2.46,1.87-4.88,7.71a6.37,6.37,0,0,1-7.77,3.66l-.14,0A5.35,5.35,0,0,1,52.36,23C53.35,17.79,56.65,11.08,61.34,8.68ZM56.09,21.15l1.15,1.4-.78,1.66a.34.34,0,0,0,.06.36.35.35,0,0,0,.24.1l.12,0L58.57,24l1.33,1.22a.35.35,0,0,0,.22.08.32.32,0,0,0,.14,0,.33.33,0,0,0,.19-.31l-.1-1.82,1.61-.9a.32.32,0,0,0,.16-.32.35.35,0,0,0-.24-.28l-1.76-.45-.34-1.78a.35.35,0,0,0-.26-.26h-.06a.32.32,0,0,0-.27.14l-1,1.55-1.81-.21h0a.3.3,0,0,0-.28.17A.32.32,0,0,0,56.09,21.15Z"/><path class="cls-2" d="M63.94,49.63c.92.33,5.13,2.89,9,1h0a20.05,20.05,0,0,1-1.73,3.94h0c-2.59.53-6.35,0-8.43-2.06l0,0A22.94,22.94,0,0,0,63.94,49.63Z"/><path class="cls-2" d="M19.82,57.65A8.23,8.23,0,0,1,22,57a7,7,0,0,1,1.11-.12,7.78,7.78,0,0,1,1.09.07c-1.64,1.85-.39,7.54,1.63,8.71l-.61.23c-.5.18-1.06.36-1.71.56l-.57.18L21.62,67A11.13,11.13,0,0,1,19.82,57.65Z"/><path class="cls-3" d="M1.75,65.69a7.14,7.14,0,0,1,2.46,0c.19-.69.21-1,.93-1,.91-.09,1.8.08,2.71,0,4.09-.81,8.36-5.45,12-7A11.13,11.13,0,0,0,21.62,67c-3.27,1.2-9,2.11-9.92,2.5-4.91,2-5,6.85-6.62,7.79-1.06.61-1.51.25-1.84-1-.27.19-1.76,1.87-2.17,1.89C-.83,78.53.06,67,1.75,65.69ZM1.63,75.3c.16.33.38.1.6-.09a9.47,9.47,0,0,0,.71-.71.54.54,0,0,0,.19-.31c.25-3.1.67-5.58.76-6.17a.09.09,0,0,0-.09-.12c-.4,0-1.32-.11-1.49.51C1.8,70.35,1.25,74.56,1.63,75.3Z"/><path class="cls-3" d="M56.06,20.79a.3.3,0,0,1,.28-.17h0l1.81.21,1-1.55a.32.32,0,0,1,.27-.14h.06a.35.35,0,0,1,.26.26l.34,1.78,1.76.45a.35.35,0,0,1,.24.28.32.32,0,0,1-.16.32l-1.61.9.1,1.82a.33.33,0,0,1-.19.31.32.32,0,0,1-.14,0,.35.35,0,0,1-.22-.08L58.57,24l-1.69.66-.12,0a.35.35,0,0,1-.24-.1.34.34,0,0,1-.06-.36l.78-1.66-1.15-1.4A.32.32,0,0,1,56.06,20.79Z"/><path class="cls-3" d="M26.63,56c3.74-4.8,4.09-10.23,5.23-15.94.76-3.79,1.71-8.26,3.58-12-.11-.52-.45-1.45-.69-2.84C43,21,43.64,17.86,50.9,13.18c3.05-2,7.67-4.53,11.94-5a6.82,6.82,0,0,0-1.5.54c-4.69,2.4-8,9.11-9,14.27A5.35,5.35,0,0,0,56,29.06l.14,0a6.37,6.37,0,0,0,7.77-3.66c2.42-5.84,4-7.33,4.88-7.71a16.56,16.56,0,0,1,.86,2.85c.14.61.65.9,1,.06.47-1.27.83-2.57,1.29-3.81a4,4,0,0,1,2.24.6A14.68,14.68,0,0,1,74.7,20c.35,3.12-3.16,5.93-4.58,6.79h0a5.54,5.54,0,0,1,1.94.52,3.5,3.5,0,0,1,1.21.87.84.84,0,0,1,.23.41.81.81,0,0,1,0,.38c-.17.66-.3,1.29-.42,1.93a12.5,12.5,0,0,1,.56,5.07l-2.81-2.5a.42.42,0,0,1,0,.1,7.7,7.7,0,0,0-.34,1.25l.69.68,2.17,2.16.1-.05a1.54,1.54,0,0,1,.58-.13c.62,0,1.73,1.07,2.47,1.5a1.81,1.81,0,0,0,.75.16,4.76,4.76,0,0,1,2.5.81c.19.12,1.42.85,2.61,1.62,2.22,1.45,1.49,3.06,1.18,3.14l-1.15-1-.06,0c-.75-.62-1.19-.33-1.3-.25-.35.27-.6.77.06,1.34h0v0l3,2.69a2.4,2.4,0,0,1-1.11.7,12.11,12.11,0,0,1-1.46.4,6.86,6.86,0,0,1-1,.09c-2.4.29-3.75-.16-6.68-2.41.2,1.14-.52,3.38-.89,4.46-3.89,1.87-8.1-.69-9-1,.18-.74.14-1.39-.4-1.7a31,31,0,0,0-3.41-1.71,7.52,7.52,0,0,1-2.2,1.38c-1.41-.58-6.73-3.94-9.79-4.2a140.67,140.67,0,0,1-7.92,14.3,8.46,8.46,0,0,1-3.53,1,13.5,13.5,0,0,1-5.43,5.89c-1.77.87-2,.1-5.47,1.05h0c-2-1.17-3.27-6.86-1.63-8.71C25.57,56.92,25.7,57.21,26.63,56Z"/><path class="cls-3" d="M77.19,6.69c0-.08,0-.17,0-.25-.89,0-2.36,0-3.4,0h-.11a.75.75,0,0,0-.7.43.82.82,0,0,0-.09.35l0,1.14a.18.18,0,0,1-.18.17h-.43a6.33,6.33,0,0,1-.45,1.41,1.09,1.09,0,0,1-1,.69h-.44l-.69,0a1.55,1.55,0,0,1-.91-.37,7.29,7.29,0,0,1-1.55-1.44H67a.17.17,0,0,1-.13-.07.16.16,0,0,1-.06-.08,2.19,2.19,0,0,0-.1-.34,12.5,12.5,0,0,0-1-2.24c-.26-.4.66-3.09,1.86-4.79,1-1.44,3.76-1.65,6.06-.92a4.72,4.72,0,0,1,1.64.14c.62.25,1.82,2.22,2.2,2.75a.86.86,0,0,0,.31.26l.13.06a.5.5,0,0,1,.28.4,9.75,9.75,0,0,1-.27,2.41C77.86,6.61,77.63,6.63,77.19,6.69Zm-5.82,1.8a.34.34,0,0,1-.32-.31l-.19-1.56a.21.21,0,0,0-.2-.19L68.9,6.5a.31.31,0,0,0-.29.27l-.2,1-.15.74c-.05.23-.1.33-.23.37h0a3.8,3.8,0,0,0,1.19,1,1,1,0,0,0,.53.16h0a.33.33,0,0,0,.1,0l.73,0a.72.72,0,0,0,.6-.43,4.41,4.41,0,0,0,.39-1.08Z"/><path class="cls-3" d="M60.23,64.48A2.48,2.48,0,0,0,60.46,63c-.45-1,1-7.2,2.33-10.46,2.08,2.08,5.84,2.59,8.43,2.06-1.4,2.83-4,7.68-4.28,9.09a1.49,1.49,0,0,0,.36,1.12c1.38,1.77,4.7,2,6.48,2.86S75.89,71,73.17,71a8.3,8.3,0,0,1,1.57,2.62c.13,1.16-15.42.7-15.49-.63a11.41,11.41,0,0,1,.64-3.13C58.56,68.79,59.62,66.44,60.23,64.48Zm2.06,7.81c1.34.21,9.9,1,9.1-.19-.17-.26-.32-.53-.5-.8a.56.56,0,0,0-.41-.2c-1-.08-4.38-.34-5.51-.41-1.32-.08-2.31-.2-2.71-.16a.37.37,0,0,0-.31.28s-.14.57-.19.76C61.62,72.07,61.94,72.24,62.29,72.29Z"/></g></g></svg>